<?xml version="1.0" encoding="utf-8"?>
<!-- Generator: Adobe Illustrator 18.0.0, SVG Export Plug-In . SVG Version: 6.00 Build 0)  -->
<!DOCTYPE svg PUBLIC "-//W3C//DTD SVG 1.1//EN" "http://www.w3.org/Graphics/SVG/1.1/DTD/svg11.dtd">
<svg version="1.1" id="Layer_1" xmlns="http://www.w3.org/2000/svg" xmlns:xlink="http://www.w3.org/1999/xlink" x="0px" y="0px"
	 viewBox="0 0 283.3 160" enable-background="new 0 0 283.3 160" xml:space="preserve">
<g>
	<g>
		<g>
			<path fill="#2E3192" d="M122.7,22.2c-12.2-12.2-28.5-19-45.8-19s-33.5,6.7-45.8,19C19.1,34.3,12.4,50.4,12.2,67.5L0.5,91
				c-0.5,1.1-0.2,2.3,0.9,2.9l10.9,6.6v34.8c0,1.2,1,2.3,2.3,2.3h21.8v17c0,1.2,1,2.3,2.3,2.3s2.3-1,2.3-2.3v-19.2
				c0-1.2-1-2.3-2.3-2.3H16.7V99.2c0-0.8-0.4-1.5-1.1-1.9L5.4,91.2L16.5,69c0.2-0.3,0.2-0.7,0.2-1c0-33.2,27-60.2,60.2-60.2
				s60.2,27,60.2,60.2c0,18.7-8.4,35.9-23.2,47.5c-0.5,0.4-0.9,1.1-0.9,1.8v37.2c0,1.2,1,2.3,2.3,2.3c1.2,0,2.3-1,2.3-2.3v-36.2
				c15.3-12.4,24-30.6,24-50.3C141.6,50.7,134.9,34.5,122.7,22.2z"/>
		</g>
	</g>
	<g>
		<g>
			<path fill="#2E3192" d="M141.6,68c0,19.7,8.7,38,24,50.3v36.2c0,1.2,1,2.3,2.3,2.3s2.3-1,2.3-2.3v-37.2c0-0.7-0.3-1.3-0.9-1.8
				c-14.7-11.5-23.2-28.8-23.2-47.5c0-33.2,27-60.2,60.2-60.2s60.2,27,60.2,60.2c0,0.4,0.1,0.7,0.2,1l11.1,22.2l-10.2,6.1
				c-0.7,0.4-1.1,1.1-1.1,1.9V133h-21.8c-1.2,0-2.3,1-2.3,2.3v19.2c0,1.2,1,2.3,2.3,2.3c1.2,0,2.3-1,2.3-2.3v-17h21.8
				c1.2,0,2.3-1,2.3-2.3v-34.8l10.9-6.6c1-0.6,1.4-1.9,0.9-2.9L271,67.5c-0.1-17.1-6.9-33.1-18.9-45.2c-12.2-12.2-28.5-19-45.8-19
				s-33.5,6.7-45.8,19C148.4,34.5,141.6,50.7,141.6,68z"/>
		</g>
	</g>
</g>
</svg>
