<?xml version="1.0" encoding="utf-8"?>
<!-- Generator: Adobe Illustrator 18.0.0, SVG Export Plug-In . SVG Version: 6.00 Build 0)  -->
<!DOCTYPE svg PUBLIC "-//W3C//DTD SVG 1.1//EN" "http://www.w3.org/Graphics/SVG/1.1/DTD/svg11.dtd">
<svg version="1.1" id="Layer_1" xmlns="http://www.w3.org/2000/svg" xmlns:xlink="http://www.w3.org/1999/xlink" x="0px" y="0px"
	 viewBox="0 0 278.7 273.3" enable-background="new 0 0 278.7 273.3" xml:space="preserve">
<g>
	<g>
		<path fill="#2E3192" d="M-230,154.2c-12.2-12.2-28.5-19-45.8-19c-17.3,0-33.5,6.7-45.8,19c-12.1,12.1-18.8,28.1-18.9,45.2
			l-11.8,23.5c-0.5,1.1-0.2,2.3,0.9,2.9l10.9,6.6v34.8c0,1.2,1,2.3,2.3,2.3h21.8v17c0,1.2,1,2.3,2.3,2.3s2.3-1,2.3-2.3v-19.2
			c0-1.2-1-2.3-2.3-2.3h-21.8v-33.8c0-0.8-0.4-1.5-1.1-1.9l-10.2-6.1l11.1-22.2c0.2-0.3,0.2-0.7,0.2-1c0-33.2,27-60.2,60.2-60.2
			s60.2,27,60.2,60.2c0,18.7-8.4,35.9-23.2,47.5c-0.5,0.4-0.9,1.1-0.9,1.8v37.2c0,1.2,1,2.3,2.3,2.3s2.3-1,2.3-2.3v-36.2
			c15.3-12.4,24-30.6,24-50.3C-211,182.7-217.7,166.5-230,154.2z"/>
	</g>
</g>
<g>
	<g>
		<path fill="#2E3192" d="M-211,200c0,19.7,8.7,38,24,50.3v36.2c0,1.2,1,2.3,2.3,2.3s2.3-1,2.3-2.3v-37.2c0-0.7-0.3-1.3-0.9-1.8
			c-14.7-11.5-23.2-28.8-23.2-47.5c0-33.2,27-60.2,60.2-60.2s60.2,27,60.2,60.2c0,0.4,0.1,0.7,0.2,1l11.1,22.2l-10.2,6.1
			c-0.7,0.4-1.1,1.1-1.1,1.9V265h-21.8c-1.2,0-2.3,1-2.3,2.3v19.2c0,1.2,1,2.3,2.3,2.3c1.2,0,2.3-1,2.3-2.3v-17h21.8
			c1.2,0,2.3-1,2.3-2.3v-34.8l10.9-6.6c1-0.6,1.4-1.9,0.9-2.9l-11.8-23.5c-0.1-17.1-6.9-33.1-18.9-45.2c-12.2-12.2-28.5-19-45.8-19
			s-33.5,6.7-45.8,19C-204.3,166.5-211,182.7-211,200z"/>
	</g>
</g>
<g>
	<polygon fill="none" stroke="#2E3192" stroke-width="6" stroke-miterlimit="10" points="-430,176 -330.2,176 -430,326 -330.2,326 	
		"/>
	<polygon fill="#2E3192" points="-420.3,320.3 -380.3,285 -340.3,320.3 	"/>
	<polygon fill="#2E3192" points="-369,225.4 -380.1,240.8 -391.1,225.4 	"/>
</g>
<g>
	<g>
		<g>
			<path fill="#2E3192" d="M228.6,37c-21.1-21.1-49.1-32.7-78.9-32.7S91.8,15.9,70.8,37c-20.9,20.9-32.5,48.5-32.7,78l-20.3,40.6
				c-0.9,1.8-0.3,4,1.5,5.1L38.1,172v60c0,2.1,1.7,3.9,3.9,3.9h37.6v29.3c0,2.1,1.7,3.9,3.9,3.9c2.1,0,3.9-1.7,3.9-3.9V232
				c0-2.1-1.7-3.9-3.9-3.9H45.8v-58.3c0-1.4-0.7-2.6-1.9-3.3l-17.6-10.6l19.1-38.2c0.3-0.5,0.4-1.1,0.4-1.7
				c0-57.3,46.6-103.9,103.9-103.9s103.9,46.6,103.9,103.9c0,32.2-14.6,62-40,81.9c-0.9,0.7-1.5,1.9-1.5,3.1v64.3
				c0,2.1,1.7,3.9,3.9,3.9c2.1,0,3.9-1.7,3.9-3.9v-62.4c26.4-21.3,41.4-52.9,41.4-86.8C261.3,86.1,249.7,58.1,228.6,37z"/>
		</g>
	</g>
	<g>
		<g>
			<path fill="#2E3192" d="M236.5,115.9c0-8.8-4-17-10.7-22.4c0,0,0,0-0.1-0.1c-0.3-0.3-0.7-0.5-1.1-0.8c0,0,0,0,0,0
				c2.4-4.3,3.6-9,3.6-14c0-15.9-12.9-28.8-28.8-28.8c-4.9,0-9.8,1.3-14,3.6c-3.7-11.7-14.7-20.2-27.4-20.2
				c-9.6,0-18.6,4.9-23.9,12.7c-5.4-2.9-11.4-4.4-17.6-4.4c-18.9,0-34.6,14.2-36.8,32.7c-12.8,6.2-21,19-21,33.4
				c0,20.4,16.6,37,37,37c7.3,0,14.3-2.1,20.4-6.1l17.3,1.8c2.1,0.2,4-1.3,4.3-3.5c0.2-2.1-1.3-4-3.5-4.3l-10.2-1.1
				c1.6-1.9,3-3.9,4.2-6c1-1.9,0.4-4.2-1.5-5.3c-1.9-1-4.2-0.4-5.3,1.5c-2.1,3.7-5,7-8.4,9.5c0,0-0.1,0-0.1,0.1
				c-5,3.6-10.9,5.5-17.1,5.5c-16.1,0-29.3-13.1-29.3-29.3c0-10.1,5-19.2,13.2-24.5c0.6,4.9,2.2,9.7,4.7,14c1.1,2,3.8,2.5,5.7,1.2
				c1.6-1.2,2-3.4,1.1-5.1c-2.6-4.4-3.9-9.5-3.9-14.6c0-0.3,0-1.3,0-1.5c0.8-15.5,13.6-27.7,29.2-27.7c6,0,11.8,1.8,16.7,5.3
				c1.9,1.4,4.7,0.6,5.7-1.5c3.5-7.3,10.9-12,19-12c10.3,0,19.1,7.6,20.7,17.7c-5.1,5.3-8,12.4-8,19.9c0,5.7,1.7,11.2,4.8,15.9
				c1.3,1.9,4,2.3,5.7,0.8c1.5-1.3,1.8-3.5,0.7-5.1c-2.3-3.4-3.5-7.4-3.5-11.6c0-6,2.6-11.7,7.1-15.7c3.8-3.4,8.8-5.3,13.9-5.3
				c11.6,0,21,9.4,21,21c0,3.7-0.9,7.2-2.7,10.3c-3.2-1.2-6.5-1.8-10-1.8c-2.1,0-3.9,1.7-3.9,3.9c0,2.1,1.7,3.9,3.9,3.9
				c4.3,0,8.6,1.3,12.1,3.9c5.5,3.9,8.9,10.2,8.9,17.1c0,11.6-9.4,21-21,21c-2.1,0-4.3-0.3-6.3-1c-8.5-2.7-14.7-10.6-14.7-20
				c0-2.1-1.7-3.9-3.9-3.9c-2.1,0-3.9,1.7-3.9,3.9c0,11.6,6.9,21.6,16.8,26.1l7.5,30.2l-6.5,4.3L178,139.1c-0.6-1.2-1.7-2-3.1-2.1
				l-22.4-2.4c-2.1-0.2-4,1.3-4.3,3.5c-0.2,2.1,1.3,4,3.5,4.3l20.3,2.1l19.8,39.5c1,2.1,3.7,2.8,5.6,1.5l12.4-8.3
				c1.4-0.9,2-2.6,1.6-4.2l-7.1-28.5c1.1,0.1,2.2,0.2,3.4,0.2C223.6,144.7,236.5,131.8,236.5,115.9z"/>
		</g>
	</g>
	<g>
		<g>
			<path fill="#2E3192" d="M164.1,97.1l-10-10l9.8-9.8c1.5-1.5,1.5-4,0-5.5L152.2,60c-1.5-1.5-4-1.5-5.5,0l-9.8,9.8l-10-10
				c-1.5-1.5-4-1.5-5.5,0l-11.7,11.7c-1.5,1.5-1.5,4,0,5.5l10,10l-10.2,10.2c-1.5,1.5-1.5,4,0,5.5l11.7,11.7c1.5,1.5,4,1.5,5.5,0
				l10.2-10.2l10,10c1.5,1.5,4,1.5,5.5,0l11.7-11.7C165.6,101.1,165.6,98.6,164.1,97.1z M149.4,68.3l6.2,6.2l-7.1,7.1l-6.2-6.2
				L149.4,68.3z M123.9,106.3l-6.2-6.2l7.5-7.5l6.2,6.2L123.9,106.3z M149.6,106.1l-31.8-31.8l6.2-6.2l31.8,31.8L149.6,106.1z"/>
		</g>
	</g>
</g>
<g>
	<g>
		<g>
			<path fill="#2E3192" d="M457.9,545.7c-19.6,0-35.5,15.9-35.5,35.5c0,19.6,15.9,35.5,35.5,35.5c19.6,0,35.5-15.9,35.5-35.5
				C493.4,561.6,477.4,545.7,457.9,545.7z M457.9,605.5c-13.4,0-24.3-10.9-24.3-24.3s10.9-24.3,24.3-24.3
				c13.4,0,24.3,10.9,24.3,24.3C482.2,594.6,471.3,605.5,457.9,605.5z"/>
		</g>
	</g>
	<g>
		<g>
			<path fill="#2E3192" d="M457.9,515.8c-3.1,0-5.6,2.5-5.6,5.6v12c0,3.1,2.5,5.6,5.6,5.6c3.1,0,5.6-2.5,5.6-5.6v-12
				C463.5,518.3,461,515.8,457.9,515.8z"/>
		</g>
	</g>
	<g>
		<g>
			<path fill="#2E3192" d="M438.8,537l-6-10.4c-1.5-2.7-5-3.6-7.7-2.1c-2.7,1.5-3.6,5-2.1,7.7l6,10.4c1,1.8,2.9,2.8,4.9,2.8
				C438.2,545.4,440.9,540.6,438.8,537z"/>
		</g>
	</g>
	<g>
		<g>
			<path fill="#2E3192" d="M419.3,552.4l-10.4-6c-2.7-1.5-6.1-0.6-7.7,2.1s-0.6,6.1,2.1,7.7l10.4,6c2.9,1.7,6.6,0.4,7.9-2.6
				C422.7,557,421.7,553.8,419.3,552.4z"/>
		</g>
	</g>
	<g>
		<g>
			<path fill="#2E3192" d="M410,575.6h-12c-3.1,0-5.6,2.5-5.6,5.6s2.5,5.6,5.6,5.6h12c3.1,0,5.6-2.5,5.6-5.6S413.1,575.6,410,575.6z
				"/>
		</g>
	</g>
	<g>
		<g>
			<path fill="#2E3192" d="M421.3,602.3c-1.5-2.7-5-3.6-7.7-2.1l-10.4,6c-2.4,1.4-3.5,4.5-2.3,7.1c1.3,3,5.1,4.3,7.9,2.6l10.4-6
				C421.9,608.4,422.9,605,421.3,602.3z"/>
		</g>
	</g>
	<g>
		<g>
			<path fill="#2E3192" d="M436.8,617.8c-2.7-1.5-6.1-0.6-7.7,2.1l-6,10.4c-1.4,2.4-0.7,5.6,1.5,7.3c2.7,2,6.5,1.1,8.2-1.7l6-10.4
				C440.4,622.7,439.4,619.3,436.8,617.8z"/>
		</g>
	</g>
	<g>
		<g>
			<path fill="#2E3192" d="M457.9,623.4c-3.1,0-5.6,2.5-5.6,5.6v12c0,3.1,2.5,5.6,5.6,5.6c3.1,0,5.6-2.5,5.6-5.6v-12
				C463.5,625.9,461,623.4,457.9,623.4z"/>
		</g>
	</g>
	<g>
		<g>
			<path fill="#2E3192" d="M492.6,630.2l-6-10.4c-1.5-2.7-5-3.6-7.7-2.1c-2.7,1.5-3.6,5-2.1,7.7l6,10.4c1.6,2.9,5.5,3.7,8.2,1.7
				C493.4,635.8,494,632.6,492.6,630.2z"/>
		</g>
	</g>
	<g>
		<g>
			<path fill="#2E3192" d="M512.4,606.2l-10.4-6c-2.7-1.5-6.1-0.6-7.7,2.1c-1.5,2.7-0.6,6.1,2.1,7.7l10.4,6c2.9,1.7,6.6,0.4,7.9-2.6
				C515.9,610.8,514.9,607.6,512.4,606.2z"/>
		</g>
	</g>
	<g>
		<g>
			<path fill="#2E3192" d="M517.6,575.6h-12c-3.1,0-5.6,2.5-5.6,5.6s2.5,5.6,5.6,5.6h12c3.1,0,5.6-2.5,5.6-5.6
				S520.7,575.6,517.6,575.6z"/>
		</g>
	</g>
	<g>
		<g>
			<path fill="#2E3192" d="M514.5,548.5c-1.5-2.7-5-3.6-7.7-2.1l-10.4,6c-2.4,1.4-3.5,4.5-2.3,7.1c1.3,3,5.1,4.3,7.9,2.6l10.4-6
				C515.1,554.6,516,551.2,514.5,548.5z"/>
		</g>
	</g>
	<g>
		<g>
			<path fill="#2E3192" d="M490.6,524.6c-2.7-1.5-6.1-0.6-7.7,2.1l-6,10.4c-2.1,3.7,0.6,8.4,4.8,8.4c1.9,0,3.8-1,4.9-2.8l6-10.4
				C494.2,529.6,493.2,526.1,490.6,524.6z"/>
		</g>
	</g>
	<g>
		<g>
			<path fill="#2E3192" d="M567.1,721.3L532,686.3c-19.5-19.5-50.4-20.7-71.4-3.8l-25.8-25.8c-6.8-6.8-18.1-6.8-24.8,0
				c-1.6,1.6-2.8,3.4-3.7,5.3l-9.6-9.6c-6.8-6.8-18-6.8-24.8,0c-1.6,1.6-2.8,3.4-3.7,5.3l-5.3-5.3c-6.8-6.8-18-6.8-24.8,0
				c-6.8,6.8-6.8,18.1,0,24.8l5.1,5.1c-1.7,0.7-3.3,1.7-4.7,3.1c-7.3,6.7-7.6,18.4-0.6,25.4l8.7,8.7c2.2,2.2,5.8,2.2,7.9,0
				s2.2-5.8,0-7.9l-8.7-8.7c-2.6-2.6-2.4-7.2,0.5-9.5c2.6-2,6.4-1.5,8.7,0.7l25.1,25.1l0.6,0.6c0.7,9,8.2,16.2,17.4,16.2l45.2,0.3
				c0,0,0,0,0,0c3.1,0,5.6-2.5,5.6-5.6c0-3.1-2.5-5.6-5.6-5.6l-45.2-0.3c-3.5,0-6.3-2.9-6.3-6.4c0-3.5,2.9-6.3,6.4-6.3c0,0,0,0,0,0
				l43.9,0.3c1.8,0.5,3.9,0,5.3-1.5l16.9-16.9c16.5-16.5,43.2-16.5,59.7,0l35.1,35.1c2.3,2.3,6.1,2.1,8.2-0.3
				C569.2,726.7,569.1,723.4,567.1,721.3z M384.4,707.8L346,669.4c-2.4-2.4-2.4-6.5,0-9c2.5-2.5,6.5-2.5,9,0l40.8,40.8
				C391.2,701.9,387.2,704.3,384.4,707.8z M411.6,701.2c-0.1-0.1-0.2-0.2-0.3-0.3l-31.4-31.4c-2.4-2.4-2.4-6.5,0-9
				c2.5-2.5,6.5-2.5,9,0l21.1,21.1c0,0,0,0,0,0l19.8,19.8L411.6,701.2z M443.5,699.2l-25.6-25.6c-1.2-1.2-1.9-2.8-1.9-4.5
				c0-5.5,6.9-8.4,10.8-4.5l25.6,25.6L443.5,699.2z"/>
		</g>
	</g>
	<g>
		<g>
			<path fill="#2E3192" d="M529,759.4l-18.1-18.1c-1.3-1.3-3.2-1.9-5.1-1.5l-41.7,8.3h-73.2l-15.3-15.3c-2.2-2.2-5.7-2.2-7.9,0
				c-2.2,2.2-2.2,5.7,0,7.9l16.9,16.9c1.1,1.1,2.5,1.6,4,1.6h76.1c0.4,0,0.7,0,1.1-0.1l39.3-7.9l16,16c2.3,2.3,6.1,2.1,8.2-0.3
				C531.2,764.8,531.1,761.4,529,759.4z"/>
		</g>
	</g>
</g>
</svg>
