<?xml version="1.0" encoding="utf-8"?>
<!-- Generator: Adobe Illustrator 18.0.0, SVG Export Plug-In . SVG Version: 6.00 Build 0)  -->
<!DOCTYPE svg PUBLIC "-//W3C//DTD SVG 1.1//EN" "http://www.w3.org/Graphics/SVG/1.1/DTD/svg11.dtd">
<svg version="1.1" id="Layer_1" xmlns="http://www.w3.org/2000/svg" xmlns:xlink="http://www.w3.org/1999/xlink" x="0px" y="0px"
	 viewBox="0 0 278.7 273.3" enable-background="new 0 0 278.7 273.3" xml:space="preserve">
<g>
	<g>
		<path fill="#2E3192" d="M-230,154.2c-12.2-12.2-28.5-19-45.8-19c-17.3,0-33.5,6.7-45.8,19c-12.1,12.1-18.8,28.1-18.9,45.2
			l-11.8,23.5c-0.5,1.1-0.2,2.3,0.9,2.9l10.9,6.6v34.8c0,1.2,1,2.3,2.3,2.3h21.8v17c0,1.2,1,2.3,2.3,2.3s2.3-1,2.3-2.3v-19.2
			c0-1.2-1-2.3-2.3-2.3h-21.8v-33.8c0-0.8-0.4-1.5-1.1-1.9l-10.2-6.1l11.1-22.2c0.2-0.3,0.2-0.7,0.2-1c0-33.2,27-60.2,60.2-60.2
			s60.2,27,60.2,60.2c0,18.7-8.4,35.9-23.2,47.5c-0.5,0.4-0.9,1.1-0.9,1.8v37.2c0,1.2,1,2.3,2.3,2.3s2.3-1,2.3-2.3v-36.2
			c15.3-12.4,24-30.6,24-50.3C-211,182.7-217.7,166.5-230,154.2z"/>
	</g>
</g>
<g>
	<g>
		<path fill="#2E3192" d="M-211,200c0,19.7,8.7,38,24,50.3v36.2c0,1.2,1,2.3,2.3,2.3s2.3-1,2.3-2.3v-37.2c0-0.7-0.3-1.3-0.9-1.8
			c-14.7-11.5-23.2-28.8-23.2-47.5c0-33.2,27-60.2,60.2-60.2s60.2,27,60.2,60.2c0,0.4,0.1,0.7,0.2,1l11.1,22.2l-10.2,6.1
			c-0.7,0.4-1.1,1.1-1.1,1.9V265h-21.8c-1.2,0-2.3,1-2.3,2.3v19.2c0,1.2,1,2.3,2.3,2.3c1.2,0,2.3-1,2.3-2.3v-17h21.8
			c1.2,0,2.3-1,2.3-2.3v-34.8l10.9-6.6c1-0.6,1.4-1.9,0.9-2.9l-11.8-23.5c-0.1-17.1-6.9-33.1-18.9-45.2c-12.2-12.2-28.5-19-45.8-19
			s-33.5,6.7-45.8,19C-204.3,166.5-211,182.7-211,200z"/>
	</g>
</g>
<g>
	<polygon fill="none" stroke="#2E3192" stroke-width="6" stroke-miterlimit="10" points="-430,176 -330.2,176 -430,326 -330.2,326 	
		"/>
	<polygon fill="#2E3192" points="-420.3,320.3 -380.3,285 -340.3,320.3 	"/>
	<polygon fill="#2E3192" points="-369,225.4 -380.1,240.8 -391.1,225.4 	"/>
</g>
<g>
	<path fill="none" stroke="#2E3192" stroke-width="6" stroke-miterlimit="10" d="M240.9,216.5h-11.2l6.3,41.8l-42.8-41.8H37.7
		c-8.9,0-16.3-7.3-16.3-16.3v-169c0-8.9,7.3-16.3,16.3-16.3h203.2c8.9,0,16.3,7.3,16.3,16.3v169
		C257.2,209.2,249.9,216.5,240.9,216.5z"/>
	<g>
		<circle fill="none" stroke="#2E3192" stroke-width="6" stroke-miterlimit="10" cx="85" cy="136.7" r="15.2"/>
		<circle fill="none" stroke="#2E3192" stroke-width="6" stroke-miterlimit="10" cx="139.1" cy="136.7" r="15.2"/>
		<circle fill="none" stroke="#2E3192" stroke-width="6" stroke-miterlimit="10" cx="193.3" cy="136.7" r="15.2"/>
	</g>
</g>
<g>
	<g>
		<g>
			<path fill="#2E3192" d="M434.2,352h-80.8c-1.7,0-3.2,1.2-3.7,2.8c-2.6,9.3-3.9,18.9-4,28.7l-20.1,40.2c-0.9,1.8-0.3,4,1.5,5
				l18.6,11.2v59.3c0,2.1,1.7,3.8,3.8,3.8h37.2v29c0,2.1,1.7,3.8,3.8,3.8c2.1,0,3.8-1.7,3.8-3.8v-32.8c0-2.1-1.7-3.8-3.8-3.8h-37.2
				v-57.7c0-1.4-0.7-2.6-1.9-3.3L334,423.9l18.9-37.8c0.3-0.5,0.4-1.1,0.4-1.7c0-8.3,1-16.6,3-24.7h77.9c2.1,0,3.8-1.7,3.8-3.8
				C438,353.7,436.3,352,434.2,352z"/>
		</g>
	</g>
	<g>
		<g>
			<path fill="#2E3192" d="M562.5,354.8c-0.5-1.7-2-2.8-3.7-2.8H456.7c-2.1,0-3.8,1.7-3.8,3.8c0,2.1,1.7,3.8,3.8,3.8h99.2
				c2,8.1,3,16.3,3,24.7c0,31.8-14.4,61.4-39.5,81c-0.9,0.7-1.5,1.8-1.5,3V532c0,2.1,1.7,3.8,3.8,3.8c2.1,0,3.8-1.7,3.8-3.8v-61.7
				c26.1-21.1,41-52.3,41-85.9C566.6,374.4,565.2,364.4,562.5,354.8z"/>
		</g>
	</g>
	<g>
		<g>
			<path fill="#2E3192" d="M539.7,291.7c-2.8-7.1-8.2-12.6-15.1-15.7s-14.7-3.2-21.8-0.4l-42,16.5c-2,0.8-2.9,3-2.2,5l18,45.8
				c0.8,1.9,3,2.9,5,2.2l42-16.5C538.2,322.8,545.4,306.3,539.7,291.7z M520.8,321.4l-38.4,15.1l-15.2-38.6l38.4-15.1
				c8.2-3.2,17.9-0.8,23.6,6c1.4,1.7,2.5,3.6,3.4,5.7C536.7,305.2,531.5,317.2,520.8,321.4z"/>
		</g>
	</g>
	<g>
		<g>
			<path fill="#2E3192" d="M430.8,292.2l-42-16.5c-7.1-2.8-14.8-2.6-21.8,0.4c-7,3-12.3,8.6-15.1,15.7c-5.7,14.6,1.5,31.1,16.1,36.9
				l42,16.5c2,0.8,4.2-0.2,5-2.2l18-45.8C433.8,295.2,432.8,292.9,430.8,292.2z M409.2,336.6l-38.4-15.1
				c-10.7-4.2-15.9-16.3-11.7-26.9c2-5.2,6-9.2,11-11.4c5-2.2,10.8-2.3,15.9-0.3l38.4,15.1L409.2,336.6z"/>
		</g>
	</g>
	<circle fill="#2E3192" cx="448" cy="334" r="7"/>
	<circle fill="#2E3192" cx="432.7" cy="343.6" r="5.3"/>
	<circle fill="#2E3192" cx="440.4" cy="321.9" r="5"/>
</g>
</svg>
