<?xml version="1.0" encoding="utf-8"?>
<!-- Generator: Adobe Illustrator 18.0.0, SVG Export Plug-In . SVG Version: 6.00 Build 0)  -->
<!DOCTYPE svg PUBLIC "-//W3C//DTD SVG 1.1//EN" "http://www.w3.org/Graphics/SVG/1.1/DTD/svg11.dtd">
<svg version="1.1" id="Layer_1" xmlns="http://www.w3.org/2000/svg" xmlns:xlink="http://www.w3.org/1999/xlink" x="0px" y="0px"
	 viewBox="0 0 287.6 297.4" enable-background="new 0 0 287.6 297.4" xml:space="preserve">
<g>
	<path opacity="0.8" fill="#4BA0F2" d="M262.1,296.2L261.9,173c0,0,42.3-51.5,15.8-109.9c-12.4-27.3-36.5-47.4-65.3-55.8
		c-94.8-27.7-193,43.2-138,134.5l-38,66.1l27.3,0.3l7.5,62.1l67.7-0.2l0.4,26.2H262.1z"/>
	<path opacity="0.8" fill="#79EAF9" d="M226.9,296.2L226.6,173c0,0,42.3-51.5,15.8-109.9C230,35.8,205.9,15.7,177.1,7.3
		c-94.8-27.7-193,43.2-138,134.5l-38,66.1l27.3,0.3l7.5,62.1l67.7-0.2l0.4,26.2H226.9z"/>
	<path fill="#2E3192" d="M205,264.2l-0.2-96.4c0,0,33.1-40.3,12.4-86c-9.7-21.4-28.6-37.1-51.1-43.7C91.9,16.3,14.9,71.8,58,143.3
		L28.3,195l21.4,0.2l5.8,48.6l53-0.2l0.3,20.6H205z"/>
	<path fill="#E6E6E6" d="M75.3,134.9c-0.9,1-1.4,2.5-1.4,4.4v3.5c0,1.9,0.5,3.3,1.4,4.4c0.9,1,2.3,1.6,4.1,1.6h0.9
		c1.9,0,3.3-0.5,4.2-1.6c0.9-1,1.4-2.5,1.4-4.4v-3.5c0-1.9-0.5-3.3-1.4-4.4c-0.9-1-2.4-1.6-4.2-1.6h-0.9
		C77.6,133.3,76.3,133.9,75.3,134.9z"/>
</g>
</svg>
