<?xml version="1.0" encoding="utf-8"?>
<!-- Generator: Adobe Illustrator 18.0.0, SVG Export Plug-In . SVG Version: 6.00 Build 0)  -->
<!DOCTYPE svg PUBLIC "-//W3C//DTD SVG 1.1//EN" "http://www.w3.org/Graphics/SVG/1.1/DTD/svg11.dtd">
<svg version="1.1" id="Layer_1" xmlns="http://www.w3.org/2000/svg" xmlns:xlink="http://www.w3.org/1999/xlink" x="0px" y="0px"
	 viewBox="0 104.9 31.2 31.5" enable-background="new 0 104.9 31.2 31.5" xml:space="preserve">
<g>
	<path opacity="0.8" fill="#4BA0F2" enable-background="new    " d="M27.7,135.7v-12.7c0,0,4.3-5.3,1.6-11.3
		c-1.3-2.8-3.8-4.9-6.7-5.7c-9.7-2.8-19.8,4.4-14.1,13.8l-3.9,6.8l2.8,0.1l0.8,6.4h6.9l0.1,2.7L27.7,135.7L27.7,135.7z"/>
	<path opacity="0.8" fill="#79EAF9" enable-background="new    " d="M24.1,135.7v-12.7c0,0,4.3-5.3,1.6-11.3
		c-1.3-2.8-3.8-4.9-6.7-5.7c-9.8-2.8-19.9,4.4-14.2,13.8l-3.9,6.8l2.8,0.1l0.8,6.4h6.9l0.1,2.7L24.1,135.7L24.1,135.7z"/>
	<path fill="#2E3192" d="M21.9,132.4v-9.9c0,0,3.4-4.1,1.3-8.8c-1-2.2-2.9-3.8-5.2-4.5C10.3,107,2.4,112.7,6.8,120l-3.1,5.3H6l0.6,5
		H12l0.1,2.1H21.9z"/>
</g>
</svg>
