<?xml version="1.0" encoding="UTF-8" standalone="no"?>
<!-- Generator: Adobe Illustrator 18.0.0, SVG Export Plug-In . SVG Version: 6.00 Build 0)  -->

<svg
   xmlns:dc="http://purl.org/dc/elements/1.1/"
   xmlns:cc="http://creativecommons.org/ns#"
   xmlns:rdf="http://www.w3.org/1999/02/22-rdf-syntax-ns#"
   xmlns:svg="http://www.w3.org/2000/svg"
   xmlns="http://www.w3.org/2000/svg"
   xmlns:sodipodi="http://sodipodi.sourceforge.net/DTD/sodipodi-0.dtd"
   xmlns:inkscape="http://www.inkscape.org/namespaces/inkscape"
   version="1.1"
   id="Layer_1"
   x="0px"
   y="0px"
   viewBox="0 104.9 160 31.5"
   enable-background="new 0 104.9 160 31.5"
   xml:space="preserve"
   sodipodi:docname="logo-footer-2.svg"
   inkscape:version="0.92.3 (2405546, 2018-03-11)"><metadata
   id="metadata59"><rdf:RDF><cc:Work
       rdf:about=""><dc:format>image/svg+xml</dc:format><dc:type
         rdf:resource="http://purl.org/dc/dcmitype/StillImage" /></cc:Work></rdf:RDF></metadata><defs
   id="defs57" /><sodipodi:namedview
   pagecolor="#ffffff"
   bordercolor="#666666"
   borderopacity="1"
   objecttolerance="10"
   gridtolerance="10"
   guidetolerance="10"
   inkscape:pageopacity="0"
   inkscape:pageshadow="2"
   inkscape:window-width="1600"
   inkscape:window-height="837"
   id="namedview55"
   showgrid="false"
   inkscape:zoom="10.146982"
   inkscape:cx="32.675031"
   inkscape:cy="-2.2127603"
   inkscape:window-x="-8"
   inkscape:window-y="-8"
   inkscape:window-maximized="1"
   inkscape:current-layer="Layer_1" />
<g
   id="g46"
   style="fill:#ffffff">
	<path
   fill="#909090"
   d="M38.8,115.1v3.5h-2v-13.4h3.3c0.9,0,1.7,0.1,2.4,0.3c0.7,0.2,1.2,0.4,1.7,0.6c0.5,0.3,0.8,0.6,1.1,0.9   c0.3,0.4,0.5,0.7,0.6,1.1c0.2,0.4,0.3,0.7,0.3,1.1c0.1,0.4,0.1,0.7,0.1,1s0,0.7-0.1,1c-0.1,0.4-0.2,0.7-0.3,1.1   c-0.2,0.4-0.4,0.7-0.7,1s-0.6,0.6-1.1,0.9s-1,0.5-1.7,0.6C41.7,115,41,115,40,115L38.8,115.1L38.8,115.1z M38.8,106.1v8.1H40   c0.7,0,1.3-0.1,1.8-0.2c0.5-0.1,1-0.4,1.4-0.7c0.4-0.3,0.7-0.8,0.9-1.3s0.3-1.1,0.3-1.9c0-0.6-0.1-1-0.2-1.5   c-0.1-0.5-0.3-0.8-0.5-1.1c-0.2-0.3-0.4-0.6-0.7-0.7c-0.3-0.2-0.6-0.4-0.9-0.5c-0.3-0.1-0.7-0.2-1-0.3c-0.4-0.1-0.8-0.1-1.1-0.1   C40,106.1,38.8,106.1,38.8,106.1z"
   id="path2"
   style="fill:#ffffff" />
	<path
   fill="#909090"
   d="M50.3,109.9c0.3,0,0.5,0,0.7,0.1c0.2,0.1,0.4,0.1,0.5,0.1s0.3,0.1,0.5,0.2c0.2,0.1,0.4,0.1,0.6,0.2v0.8   c-0.3-0.1-0.6-0.2-0.9-0.3c-0.3-0.1-0.7-0.1-1.1-0.1c-0.1,0-0.2,0-0.3,0.1c-0.1,0.1-0.4,0-0.5,0.1c-0.1,0.1-0.2,0.2-0.3,0.2   c-0.1,0.1-0.1,0.3-0.1,0.4c0,0.2,0.1,0.4,0.2,0.6s0.4,0.5,0.7,0.8l1,1.1c0.2,0.3,0.4,0.5,0.6,0.7s0.4,0.4,0.5,0.7   c0.2,0.3,0.3,0.4,0.4,0.6c0.1,0.2,0.2,0.4,0.2,0.6c0,0.4-0.1,0.7-0.3,1s-0.4,0.5-0.7,0.7s-0.6,0.3-1,0.4c-0.4,0.1-0.7,0.1-1.1,0.1   c-0.5,0-1-0.1-1.3-0.2c-0.4-0.1-0.8-0.3-1.1-0.5l0.1-0.8c0.3,0.2,0.6,0.3,0.9,0.4c0.4,0.2,0.7,0.2,1,0.2c0.6,0,1-0.1,1.3-0.3   c0.3-0.2,0.4-0.5,0.4-0.9c0-0.3-0.1-0.6-0.3-0.8c-0.2-0.3-0.5-0.6-0.8-1l-1-1.1c-0.3-0.3-0.5-0.6-0.7-0.8c-0.2-0.2-0.4-0.6-0.5-0.8   s-0.2-0.3-0.3-0.5s-0.1-0.3-0.1-0.5c0-0.3,0.1-0.6,0.2-0.8c0.1-0.2,0.4-0.4,0.6-0.5c0.2-0.2,0.5-0.2,0.9-0.3   C49.6,109.9,50,109.9,50.3,109.9z"
   id="path4"
   style="fill:#ffffff" />
	<path
   fill="#909090"
   d="M56.5,108.7h-1.9v-1.1h1.9V108.7z M56.5,118.6h-1.9v-8.5h1.9V118.6z"
   id="path6"
   style="fill:#ffffff" />
	<path
   fill="#909090"
   d="M65.1,111.5c-0.3-0.3-0.6-0.5-0.9-0.6c-0.3-0.1-0.7-0.2-1.1-0.2c-0.5,0-0.9,0.1-1.2,0.3s-0.6,0.4-0.9,0.7   c-0.3,0.3-0.4,0.7-0.5,1s-0.2,0.8-0.2,1.2c0,0.2,0,0.5,0.1,0.7c0.1,0.3,0.1,0.6,0.2,0.8c0.1,0.3,0.2,0.6,0.4,0.8   c0.2,0.2,0.4,0.5,0.6,0.7c0.3,0.2,0.6,0.4,1,0.5c0.4,0.1,0.9,0.2,1.4,0.2h1.3v1h-1.4c-0.7,0-1.3-0.1-1.9-0.2   c-0.6-0.1-1-0.3-1.4-0.5s-0.7-0.5-1-0.7c-0.3-0.3-0.5-0.6-0.7-0.9c-0.2-0.4-0.3-0.7-0.4-1.1c-0.1-0.4-0.1-0.8-0.1-1.2   c0-0.6,0.1-1.1,0.3-1.5c0.2-0.5,0.5-0.9,0.9-1.3c0.4-0.4,0.9-0.7,1.4-0.9c0.6-0.2,1.2-0.4,2-0.4c0.2,0,0.4,0,0.6,0.1   c0.2,0.1,0.4,0.1,0.6,0.2c0.2,0.1,0.4,0.2,0.6,0.3c0.2,0.1,0.4,0.3,0.6,0.4L65.1,111.5z"
   id="path8"
   style="fill:#ffffff" />
	<path
   fill="#909090"
   d="M70.6,109.9c0.6,0,1.2,0.1,1.7,0.4c0.6,0.3,1,0.6,1.4,0.9c0.4,0.4,0.7,0.9,0.9,1.4c0.2,0.5,0.4,1.1,0.4,1.7   c0,0.6-0.1,1.2-0.4,1.7c-0.3,0.6-0.6,1-0.9,1.4c-0.4,0.4-0.9,0.7-1.4,0.9c-0.6,0.2-1.1,0.4-1.7,0.4s-1.2-0.1-1.7-0.4   s-1-0.6-1.4-0.9s-0.7-0.9-0.9-1.4c-0.2-0.5-0.4-1.1-0.4-1.7c0-0.6,0.1-1.2,0.4-1.7s0.6-1,0.9-1.4c0.4-0.4,0.9-0.7,1.4-0.9   C69.4,110.1,70,109.9,70.6,109.9z M70.5,110.7c-0.5,0-0.9,0.1-1.2,0.3c-0.3,0.2-0.6,0.4-0.8,0.8c-0.2,0.4-0.4,0.7-0.4,1.2   c-0.1,0.5-0.2,0.9-0.2,1.4s0.1,1,0.2,1.4c0.1,0.5,0.3,0.8,0.4,1.1c0.2,0.3,0.5,0.6,0.8,0.8s0.7,0.3,1.2,0.3s0.9-0.1,1.2-0.3   c0.3-0.2,0.6-0.4,0.8-0.8c0.2-0.4,0.4-0.7,0.5-1.1c0.1-0.4,0.2-0.9,0.2-1.4s-0.1-1-0.2-1.4c-0.1-0.4-0.3-0.8-0.5-1.2   s-0.5-0.6-0.8-0.8C71.4,110.8,71,110.7,70.5,110.7z"
   id="path10"
   style="fill:#ffffff" />
	<path
   fill="#909090"
   d="M76.9,105.2h1.9v13.4h-1.9V105.2z"
   id="path12"
   style="fill:#ffffff" />
	<path
   fill="#909090"
   d="M84.9,109.9c0.6,0,1.2,0.1,1.7,0.4s1,0.6,1.4,0.9c0.4,0.4,0.7,0.9,0.9,1.4c0.2,0.5,0.4,1.1,0.4,1.7   c0,0.6-0.1,1.2-0.4,1.7s-0.6,1-0.9,1.4c-0.4,0.4-0.9,0.7-1.4,0.9c-0.5,0.2-1.1,0.4-1.7,0.4s-1.2-0.1-1.7-0.4s-1-0.6-1.4-0.9   c-0.4-0.4-0.7-0.9-0.9-1.4c-0.2-0.5-0.4-1.1-0.4-1.7c0-0.6,0.1-1.2,0.4-1.7s0.6-1,0.9-1.4c0.4-0.4,0.9-0.7,1.4-0.9   C83.7,110.1,84.3,109.9,84.9,109.9z M84.9,110.7c-0.5,0-0.9,0.1-1.2,0.3c-0.3,0.2-0.6,0.4-0.8,0.8c-0.2,0.4-0.4,0.7-0.4,1.2   s-0.2,0.9-0.2,1.4s0.1,1,0.2,1.4c0.1,0.4,0.3,0.8,0.4,1.1c0.2,0.3,0.5,0.6,0.8,0.8c0.3,0.2,0.7,0.3,1.2,0.3s0.9-0.1,1.2-0.3   c0.3-0.2,0.6-0.4,0.8-0.8c0.2-0.4,0.4-0.7,0.5-1.1c0.1-0.4,0.2-0.9,0.2-1.4s-0.1-1-0.2-1.4c-0.1-0.4-0.3-0.8-0.5-1.2   c-0.2-0.4-0.5-0.6-0.8-0.8C85.8,110.8,85.4,110.7,84.9,110.7z"
   id="path14"
   style="fill:#ffffff" />
	<path
   fill="#909090"
   d="M103.4,108.7h-1.9v-1.1h1.9V108.7z M103.4,118.6h-1.9v-8.5h1.9V118.6z"
   id="path16"
   style="fill:#ffffff" />
	<path
   fill="#909090"
   d="M108.7,110.7c-0.3,0-0.6,0-0.8,0.1c-0.2,0-0.4,0.1-0.6,0.1s-0.4,0.1-0.5,0.1c-0.2,0.1-0.3,0.1-0.5,0.1   l-0.2-0.6c0.5-0.2,1-0.3,1.6-0.4c0.6-0.1,1.1-0.1,1.5-0.1c0.6,0,1.1,0.1,1.5,0.1c0.4,0.1,0.7,0.2,1,0.3c0.3,0.2,0.4,0.4,0.5,0.6   c0.1,0.3,0.2,0.6,0.2,1v6.6h-3c-0.8,0-1.5-0.1-2.1-0.3c-0.6-0.2-1-0.4-1.4-0.7s-0.6-0.6-0.8-1c-0.2-0.4-0.3-0.8-0.3-1.2   c0-0.5,0.1-1,0.3-1.3s0.4-0.7,0.7-1c0.3-0.3,0.7-0.5,1.1-0.6c0.4-0.2,0.9-0.2,1.5-0.2c0.3,0,0.7,0.1,1,0.2c0.4,0.1,0.8,0.3,1.1,0.5   v-1.1c0-0.2,0-0.3-0.1-0.4c-0.1-0.1-0.1-0.3-0.3-0.4c-0.1-0.1-0.3-0.2-0.6-0.3C109.5,110.7,109.2,110.7,108.7,110.7z M110.7,117.9   v-4.2c-0.3-0.2-0.6-0.3-0.9-0.4c-0.4-0.1-0.7-0.1-1-0.1s-0.6,0.1-0.8,0.2c-0.3,0.1-0.4,0.3-0.6,0.5s-0.3,0.4-0.4,0.7   c-0.1,0.3-0.1,0.6-0.1,0.9c0,0.1,0,0.2,0,0.4c0,0.2,0.1,0.3,0.1,0.5c0.1,0.2,0.2,0.4,0.3,0.6c0.1,0.2,0.3,0.4,0.5,0.5   c0.2,0.2,0.4,0.3,0.7,0.4c0.3,0.1,0.7,0.2,1.1,0.2L110.7,117.9L110.7,117.9z"
   id="path18"
   style="fill:#ffffff" />
	<path
   fill="#909090"
   d="M46.8,128.7c-0.3,0-0.5,0.1-0.6,0.2c-0.1,0.2-0.2,0.3-0.2,0.4c0,0.1,0.1,0.3,0.1,0.6c0,0.3,0.1,0.6,0.1,1.1   c0,1-0.2,1.9-0.7,2.7c0.5,0.4,0.8,0.7,1.1,0.9c0.3,0.2,0.6,0.4,1,0.6s0.8,0.4,1.2,0.4l0,0c0,0-0.1,0-0.3,0s-0.3,0-0.4,0   c-0.1,0-0.2,0-0.5,0c-0.2,0-0.4-0.1-0.5-0.1c-0.2-0.1-0.3-0.1-0.5-0.1s-0.4-0.1-0.6-0.2c-0.5-0.2-0.8-0.4-1.2-0.7   c-0.9,0.9-2,1.3-3.4,1.3c-1.8,0-3.2-0.4-4.2-1.1c-1-0.8-1.5-1.8-1.5-3.2c0-1.5,0.8-2.7,2.3-3.4c-0.5-0.8-0.7-1.6-0.7-2.5   c0-0.9,0.3-1.6,1-2.3c0.7-0.7,1.6-0.9,2.7-0.9c0.6,0,1.2,0.1,1.8,0.4s1,0.6,1.3,1l-0.3,2.1h-0.2c0-0.9-0.3-1.6-0.7-2.1   c-0.5-0.5-1.1-0.8-1.9-0.8c-0.8,0-1.3,0.3-1.8,0.7c-0.5,0.5-0.7,1.1-0.7,1.9c0,0.7,0.2,1.4,0.7,2.1s1.3,1.6,2.7,2.8   c1.4,1.2,2.3,2.1,2.9,2.6c0.3-0.6,0.4-1.1,0.4-1.7c0-0.6-0.2-1.2-0.4-1.7c-0.3-0.5-0.7-0.8-1.2-0.8h-0.3v-0.2H47v0.2h-0.3v-0.2   H46.8z M44.2,134c-3.1-2.6-5.1-4.4-5.9-5.5c-0.8,0.7-1.2,1.7-1.2,2.9c0,1.2,0.4,2.1,1.1,2.8c0.8,0.7,1.8,1,3.2,1   C42.5,135.2,43.5,134.8,44.2,134z"
   id="path20"
   style="fill:#ffffff" />
	<path
   fill="#909090"
   d="M51.5,122.2h2.1l4.4,11l4.6-11h1l-5.1,12.2l0.5,1.2h-2.1L51.5,122.2z"
   id="path22"
   style="fill:#ffffff" />
	<path
   fill="#909090"
   d="M66.2,125.7h-1.9v-1.1h1.9V125.7z M66.2,135.6h-1.9v-8.5h1.9V135.6z"
   id="path24"
   style="fill:#ffffff" />
	<path
   fill="#909090"
   d="M73.5,135.6c-0.7,0-1.3-0.1-1.9-0.2c-0.6-0.1-1-0.3-1.4-0.5s-0.7-0.5-1-0.7s-0.5-0.6-0.7-0.9   s-0.3-0.7-0.4-1.1c-0.1-0.3-0.1-0.7-0.1-1.1c0-0.6,0.1-1.1,0.3-1.6c0.2-0.5,0.5-0.9,0.8-1.3c0.4-0.4,0.8-0.7,1.4-0.9   c0.6-0.2,1.2-0.3,2-0.3c0.3,0,0.7,0.1,1,0.2c0.4,0.1,0.8,0.3,1.1,0.5v-5.4h1.9v13.3H73.5z M70,131c0,0.2,0,0.5,0.1,0.7   c0.1,0.3,0.1,0.6,0.2,0.8c0.1,0.3,0.2,0.6,0.4,0.8c0.2,0.3,0.4,0.5,0.6,0.7c0.3,0.2,0.6,0.4,1,0.5c0.4,0.1,0.9,0.2,1.4,0.2h1.2V128   c-0.3-0.2-0.6-0.3-0.9-0.4c-0.4-0.1-0.7-0.2-1-0.2c-0.5,0-0.8,0.1-1.2,0.3c-0.4,0.2-0.6,0.4-0.9,0.7c-0.3,0.3-0.4,0.7-0.6,1.1   C70.1,129.9,70,130.6,70,131z"
   id="path26"
   style="fill:#ffffff" />
	<path
   fill="#909090"
   d="M81.9,127.7c-0.3,0-0.6,0-0.8,0.1c-0.2,0-0.4,0.1-0.6,0.1S80.1,128,80,128c-0.2,0.1-0.3,0.1-0.5,0.1   l-0.2-0.6c0.5-0.2,1-0.3,1.6-0.4c0.6-0.1,1.1-0.1,1.5-0.1c0.6,0,1.1,0.1,1.5,0.1c0.4,0.1,0.7,0.2,1,0.3c0.3,0.2,0.4,0.4,0.5,0.6   c0.1,0.3,0.2,0.6,0.2,1v6.6h-3c-0.8,0-1.5-0.1-2.1-0.3c-0.6-0.2-1-0.4-1.4-0.7s-0.6-0.6-0.8-1c-0.2-0.4-0.3-0.8-0.3-1.2   c0-0.5,0.1-1,0.3-1.3s0.4-0.7,0.7-1c0.3-0.3,0.7-0.5,1.1-0.6c0.4-0.2,0.9-0.2,1.5-0.2c0.3,0,0.7,0.1,1,0.2c0.4,0.1,0.8,0.3,1.1,0.5   v-1.1c0-0.2,0-0.3-0.1-0.4c-0.1-0.2-0.1-0.3-0.3-0.4c-0.1-0.1-0.3-0.2-0.6-0.3C82.7,127.7,82.4,127.7,81.9,127.7z M83.9,134.9v-4.2   c-0.3-0.2-0.6-0.3-0.9-0.4c-0.4-0.1-0.7-0.1-1-0.1s-0.6,0.1-0.8,0.2c-0.3,0.1-0.4,0.3-0.6,0.5s-0.3,0.4-0.4,0.7   c-0.1,0.3-0.1,0.6-0.1,0.9c0,0.1,0,0.2,0,0.4c0,0.2,0.1,0.3,0.1,0.5c0.1,0.2,0.2,0.4,0.3,0.6c0.1,0.2,0.3,0.4,0.5,0.5   c0.2,0.1,0.4,0.3,0.7,0.4c0.3,0.1,0.7,0.2,1.1,0.2L83.9,134.9L83.9,134.9z"
   id="path28"
   style="fill:#ffffff" />
	<path
   fill="#909090"
   d="M99.5,131.4c-0.2-0.4-0.4-0.7-0.6-1s-0.5-0.7-0.8-1s-0.7-0.7-1-1.1l-1.6-1.7c-0.5-0.5-0.8-0.9-1-1.3   c-0.2-0.4-0.3-0.7-0.3-0.9c0-0.3,0.1-0.5,0.2-0.7s0.3-0.4,0.5-0.5c0.2-0.1,3.2-1.4,3.5-1.6s0.5-0.4,0.6-0.6s0.2-0.5,0.2-0.7V110   h-1.5v0.5c-0.5-0.2-0.9-0.4-1.3-0.5c-0.4-0.1-0.8-0.2-1.1-0.2c-0.8,0-1.5,0.1-2,0.3c-0.5,0.2-1,0.5-1.4,0.9   c-0.4,0.4-0.7,0.8-0.8,1.3c-0.2,0.5-0.3,1-0.3,1.6c0,0.4,0.1,0.8,0.1,1.2c0.1,0.4,0.2,0.7,0.4,1.1c0.2,0.4,0.4,0.7,0.7,0.9   c0.3,0.2,0.6,0.5,1,0.7s0.9,0.2,1.4,0.3c0.6,0.1,1.2,0,1.9,0h1.5v1.6c0,0.5-0.4,0.8-0.7,1.1c-0.3,0.3-3.4,1.3-3.6,1.4   c-0.3,0.2-0.6,0.5-0.8,0.8c-0.2,0.3-0.3,0.7-0.3,1.2c0,0.3,0.1,0.5,0.1,0.7c0.1,0.2,0.2,0.5,0.4,0.8c0.2,0.3,0.4,0.6,0.7,0.9   c0.3,0.3,0.6,0.8,1,1.3l1.6,1.7c0.3,0.3,0.5,0.5,0.7,0.8c0.3,0.3,0.4,0.5,0.6,0.7c0.2,0.3,0.3,0.5,0.4,0.7s0.2,0.4,0.2,0.6   c0,0.7-0.2,1.2-0.7,1.6c-0.5,0.4-1.1,0.6-2,0.6c-0.3,0-0.5-0.1-0.8-0.1c-0.3-0.1-0.5-0.1-0.8-0.2c-0.3-0.1-0.5-0.2-0.8-0.3   s-0.5-0.2-0.7-0.3l-0.1,1c0.3,0.2,0.6,0.3,0.9,0.5s0.6,0.3,0.9,0.3c0.3,0.1,0.7,0.2,1,0.2c0.4,0.1,0.7,0.1,1.1,0.1   c0.5,0,0.9-0.1,1.4-0.2c0.5-0.1,0.9-0.3,1.3-0.6c0.4-0.3,0.7-0.6,0.9-1.1s0.4-1,0.4-1.6C99.8,132.1,99.7,131.8,99.5,131.4z    M96.1,117.7c-0.5,0-1,0-1.4-0.2s-0.7-0.3-1-0.5c-0.3-0.3-0.5-0.5-0.6-0.7s-0.3-0.6-0.4-0.8c-0.1-0.3-0.2-0.6-0.2-0.8   c0-0.3-0.1-0.5-0.1-0.7c0-0.5,0.1-0.9,0.2-1.3c0.1-0.4,0.3-0.8,0.6-1.1c0.3-0.3,0.5-0.6,0.9-0.7c0.4-0.2,0.7-0.3,1.2-0.3   c0.4,0,0.9,0.1,1.2,0.2c0.3,0.1,0.6,0.2,1.1,0.4v6.5H96.1z"
   id="path30"
   style="fill:#ffffff" />
	<path
   fill="#909090"
   d="M104.6,127.7c-0.3,0-0.6,0-0.8,0.1c-0.2,0-0.4,0.1-0.6,0.1s-0.4,0.1-0.5,0.1c-0.2,0.1-0.3,0.1-0.5,0.1   l-0.2-0.6c0.5-0.2,1-0.3,1.6-0.4c0.6-0.1,1.1-0.1,1.5-0.1c0.6,0,1.1,0.1,1.5,0.1c0.4,0.1,0.7,0.2,1,0.3c0.3,0.2,0.4,0.4,0.5,0.6   c0.1,0.3,0.2,0.6,0.2,1v6.6h-3c-0.8,0-1.5-0.1-2.1-0.3c-0.6-0.2-1-0.4-1.4-0.7s-0.6-0.6-0.8-1c-0.2-0.4-0.3-0.8-0.3-1.2   c0-0.5,0.1-1,0.3-1.3s0.4-0.7,0.7-1c0.3-0.3,0.7-0.5,1.1-0.6c0.4-0.2,0.9-0.2,1.5-0.2c0.3,0,0.7,0.1,1,0.2c0.4,0.1,0.8,0.3,1.1,0.5   v-1.1c0-0.2,0-0.3-0.1-0.4c-0.1-0.2-0.1-0.3-0.3-0.4c-0.1-0.1-0.3-0.2-0.6-0.3C105.4,127.7,105.1,127.7,104.6,127.7z M106.5,134.9   v-4.2c-0.3-0.2-0.6-0.3-0.9-0.4c-0.4-0.1-0.7-0.1-1-0.1s-0.6,0.1-0.8,0.2c-0.3,0.1-0.4,0.3-0.6,0.5s-0.3,0.4-0.4,0.7   c-0.1,0.3-0.1,0.6-0.1,0.9c0,0.1,0,0.2,0,0.4c0,0.2,0.1,0.3,0.1,0.5c0.1,0.2,0.2,0.4,0.3,0.6c0.1,0.2,0.3,0.4,0.5,0.5   c0.2,0.2,0.4,0.3,0.7,0.4c0.3,0.1,0.7,0.2,1.1,0.2L106.5,134.9L106.5,134.9z"
   id="path32"
   style="fill:#ffffff" />
	<path
   fill="#909090"
   d="M115.9,134.9c-0.4,0.2-0.8,0.3-1.1,0.4c-0.3,0.1-0.6,0.2-0.9,0.3s-0.6,0.1-0.8,0.2   c-0.2,0.1-0.5,0.1-0.7,0.1c-0.6,0-1-0.2-1.3-0.5s-0.5-0.8-0.5-1.4v-6.8h1.9v6.4c0,0.2,0,0.3,0.1,0.4c0.1,0.2,0.1,0.3,0.2,0.4   c0.1,0.1,0.2,0.2,0.3,0.3s0.3,0.1,0.5,0.1c0.3,0,0.7-0.1,1.1-0.1c0.4-0.1,0.9-0.2,1.4-0.5v-7.1h1.9v8.5h-2L115.9,134.9L115.9,134.9   z"
   id="path34"
   style="fill:#ffffff" />
	<path
   fill="#909090"
   d="M125.1,135.6c-0.7,0-1.3-0.1-1.9-0.2c-0.6-0.1-1-0.3-1.4-0.5s-0.7-0.5-1-0.7s-0.5-0.6-0.7-0.9   s-0.3-0.7-0.4-1.1c-0.1-0.4-0.1-0.8-0.1-1.2c0-0.6,0.1-1.1,0.3-1.6c0.2-0.5,0.5-0.9,0.8-1.3c0.4-0.4,0.8-0.7,1.4-0.9   c0.6-0.2,1.2-0.3,2-0.3c0.3,0,0.7,0.1,1,0.2c0.4,0.1,0.8,0.3,1.1,0.5v-5.4h1.9v13.4H125.1z M121.5,131c0,0.2,0,0.5,0.1,0.7   c0.1,0.3,0.1,0.6,0.2,0.8c0.1,0.3,0.2,0.6,0.4,0.8c0.2,0.3,0.4,0.5,0.6,0.7s0.6,0.4,1,0.5c0.4,0.1,0.9,0.2,1.4,0.2h1.2V128   c-0.3-0.2-0.6-0.3-0.9-0.4c-0.4-0.1-0.7-0.2-1-0.2c-0.5,0-0.8,0.1-1.2,0.3c-0.4,0.2-0.6,0.4-0.9,0.7c-0.3,0.3-0.4,0.7-0.6,1.1   C121.6,129.9,121.5,130.6,121.5,131z"
   id="path36"
   style="fill:#ffffff" />
	<path
   fill="#909090"
   d="M133.5,127.7c-0.3,0-0.6,0-0.8,0.1c-0.2,0-0.4,0.1-0.6,0.1c-0.2,0.1-0.4,0.1-0.5,0.1   c-0.2,0.1-0.3,0.1-0.5,0.1l-0.2-0.6c0.5-0.2,1-0.3,1.6-0.4c0.6-0.1,1.1-0.1,1.5-0.1c0.6,0,1.1,0.1,1.5,0.1c0.4,0.1,0.7,0.2,1,0.3   c0.3,0.2,0.4,0.4,0.5,0.6s0.2,0.6,0.2,1v6.6h-3c-0.8,0-1.5-0.1-2.1-0.3c-0.6-0.2-1-0.4-1.4-0.7s-0.6-0.6-0.8-1   c-0.2-0.4-0.3-0.8-0.3-1.2c0-0.5,0.1-1,0.3-1.3s0.4-0.7,0.7-1s0.7-0.5,1.1-0.6c0.4-0.2,0.9-0.2,1.5-0.2c0.3,0,0.7,0.1,1,0.2   c0.4,0.1,0.8,0.3,1.1,0.5v-1.1c0-0.2,0-0.3-0.1-0.4c-0.1-0.2-0.1-0.3-0.3-0.4c-0.1-0.1-0.3-0.2-0.6-0.3   C134.2,127.7,133.9,127.7,133.5,127.7z M135.4,134.9v-4.2c-0.3-0.2-0.6-0.3-0.9-0.4c-0.4-0.1-0.7-0.1-1-0.1s-0.6,0.1-0.8,0.2   c-0.3,0.1-0.4,0.3-0.6,0.5c-0.2,0.2-0.3,0.4-0.4,0.7c-0.1,0.3-0.1,0.6-0.1,0.9c0,0.1,0,0.2,0,0.4c0,0.2,0.1,0.3,0.1,0.5   c0.1,0.2,0.2,0.4,0.3,0.6s0.3,0.4,0.5,0.5c0.2,0.2,0.4,0.3,0.7,0.4c0.3,0.1,0.7,0.2,1.1,0.2L135.4,134.9L135.4,134.9z M134.3,123.1   h2.1l-2.4,2.7h-0.9L134.3,123.1z"
   id="path38"
   style="fill:#ffffff" />
	<path
   fill="#909090"
   d="M143.3,133.6l2.5-6.5h0.9l-2.9,7.6l0.4,0.9h-1.9l-3.9-8.5h1.9L143.3,133.6z"
   id="path40"
   style="fill:#ffffff" />
	<path
   fill="#909090"
   d="M151.4,126.9c0.6,0,1.1,0.1,1.5,0.4s0.8,0.5,1,0.9c0.2,0.4,0.5,0.8,0.6,1.3s0.2,1,0.2,1.6v0.4h-5.5   c0,0.4,0.1,0.7,0.2,1.1c0.1,0.4,0.3,0.8,0.5,1.1c0.2,0.3,0.6,0.6,0.9,0.8c0.3,0.2,0.9,0.3,1.4,0.3h1.9v0.8h-1.9   c-0.8,0-1.6-0.1-2.2-0.3c-0.6-0.2-1.1-0.5-1.5-0.8c-0.4-0.4-0.7-0.8-0.9-1.3s-0.3-1.1-0.3-1.8c0-0.6,0.1-1.1,0.3-1.6s0.4-1,0.8-1.4   c0.4-0.4,0.8-0.7,1.2-1C150.2,127.1,150.7,126.9,151.4,126.9z M151.3,127.7c-0.4,0-0.7,0.1-1,0.3c-0.3,0.2-0.5,0.4-0.7,0.7   s-0.3,0.6-0.4,1c-0.1,0.4-0.1,0.8-0.2,1.1h3.8v-0.4c0-0.4-0.1-0.7-0.1-1s-0.2-0.6-0.3-0.9s-0.3-0.5-0.5-0.6   C151.9,127.7,151.7,127.7,151.3,127.7z"
   id="path42"
   style="fill:#ffffff" />
	<path
   fill="#909090"
   d="M156.6,122.2h1.9v13.4h-1.9V122.2z"
   id="path44"
   style="fill:#ffffff" />
</g>
<path
   opacity="0.8"
   fill="#909090"
   enable-background="new    "
   d="M27.7,135.7V123c0,0,4.3-5.3,1.6-11.3c-1.3-2.8-3.8-4.9-6.7-5.7  c-9.7-2.8-19.8,4.4-14.1,13.8l-4,6.8h2.8l0.8,6.4H15l0.1,2.7H27.7L27.7,135.7z"
   id="path48"
   style="fill:#808080" />
<path
   opacity="0.8"
   fill="#909090"
   enable-background="new    "
   d="M24.1,135.7V123c0,0,4.3-5.3,1.6-11.3c-1.3-2.8-3.8-4.9-6.7-5.7  c-9.8-2.8-19.9,4.4-14.2,13.8l-3.9,6.8h2.8l0.8,6.4h6.9l0.1,2.7H24.1L24.1,135.7z"
   id="path50"
   style="fill:#666666" />
<path
   fill="#FFFFFF"
   d="M21.8,132.4v-9.9c0,0,3.4-4.1,1.3-8.8c-1-2.2-2.9-3.8-5.2-4.5C10.2,107,2.4,112.6,6.8,120l-3.1,5.3h2.2  l0.6,5H12l0.1,2.1H21.8z"
   id="path52" />
</svg>