<?xml version="1.0" encoding="utf-8"?>
<!-- Generator: Adobe Illustrator 18.0.0, SVG Export Plug-In . SVG Version: 6.00 Build 0)  -->
<!DOCTYPE svg PUBLIC "-//W3C//DTD SVG 1.1//EN" "http://www.w3.org/Graphics/SVG/1.1/DTD/svg11.dtd">
<svg version="1.1" id="Layer_1" xmlns="http://www.w3.org/2000/svg" xmlns:xlink="http://www.w3.org/1999/xlink" x="0px" y="0px"
	 viewBox="0 0 160 160" enable-background="new 0 0 160 160" xml:space="preserve">
<g>
	<path fill="none" stroke="#2E3192" stroke-width="4" stroke-miterlimit="10" d="M120.4,147.5H39.3c-2.2,0-4-1.8-4-4v-127
		c0-2.2,1.8-4,4-4h81.1c2.2,0,4,1.8,4,4v127C124.4,145.7,122.6,147.5,120.4,147.5z"/>
	<path fill="none" stroke="#2E3192" stroke-width="4" stroke-miterlimit="10" d="M120.7,129.4h-81c-2.2,0-4-1.8-4-4V27
		c0-2.2,1.8-4,4-4h81c2.2,0,4,1.8,4,4v98.3C124.7,127.6,122.9,129.4,120.7,129.4z"/>
	<path fill="#2E3192" d="M83,135.2c3.5,4.6-1.7,9.8-6.3,6.3C73.2,136.9,78.4,131.7,83,135.2z"/>
</g>
</svg>
