<?xml version="1.0" encoding="utf-8"?>
<!-- Generator: Adobe Illustrator 18.0.0, SVG Export Plug-In . SVG Version: 6.00 Build 0)  -->
<!DOCTYPE svg PUBLIC "-//W3C//DTD SVG 1.1//EN" "http://www.w3.org/Graphics/SVG/1.1/DTD/svg11.dtd">
<svg version="1.1" id="Layer_1" xmlns="http://www.w3.org/2000/svg" xmlns:xlink="http://www.w3.org/1999/xlink" x="0px" y="0px"
	 viewBox="0 0 271.8 277" enable-background="new 0 0 271.8 277" xml:space="preserve">
<g>
	<path opacity="0.8" fill="#4BA0F2" d="M670.7,403.7l-0.2-123.1c0,0,42.3-51.5,15.8-109.9c-12.4-27.3-36.5-47.4-65.3-55.8
		C526.2,87.2,428,158,483,249.3l-38,66.1l27.3,0.3l7.5,62.1l67.7-0.2l0.4,26.2H670.7z"/>
	<path opacity="0.8" fill="#79EAF9" d="M635.5,403.7l-0.2-123.1c0,0,42.3-51.5,15.8-109.9c-12.4-27.3-36.5-47.4-65.3-55.8
		c-94.8-27.7-193,43.2-138,134.5l-38,66.1l27.3,0.3l7.5,62.1l67.7-0.2l0.4,26.2H635.5z"/>
	<path fill="#2E3192" d="M613.6,371.7l-0.2-96.4c0,0,33.1-40.3,12.4-86c-9.7-21.4-28.6-37.1-51.1-43.7
		c-74.2-21.7-151.1,33.8-108,105.3l-29.7,51.7l21.4,0.2l5.8,48.6l53-0.2l0.3,20.6H613.6z"/>
	<path fill="#E6E6E6" d="M483.9,242.4c-0.9,1-1.4,2.5-1.4,4.4v3.5c0,1.9,0.5,3.3,1.4,4.4c0.9,1,2.3,1.6,4.1,1.6h0.9
		c1.9,0,3.3-0.5,4.2-1.6c0.9-1,1.4-2.5,1.4-4.4v-3.5c0-1.9-0.5-3.3-1.4-4.4c-0.9-1-2.4-1.6-4.2-1.6H488
		C486.2,240.9,484.9,241.4,483.9,242.4z"/>
</g>
<g>
	<path fill="#D6B1F8" d="M134.8,276.3h-8.7C57.4,276.3,1.1,220,1.1,151.3v-8.7c0-68.8,56.3-125.1,125.1-125.1h8.7
		c68.8,0,125.1,56.3,125.1,125.1v8.7C259.9,220,203.6,276.3,134.8,276.3z"/>
	<path fill="#2E3192" d="M145.2,259.8h-8.7c-68.8,0-125.1-56.3-125.1-125.1v-8.7C11.5,57.3,67.8,1,136.5,1h8.7
		C214,1,270.2,57.3,270.2,126.1v8.7C270.2,203.5,214,259.8,145.2,259.8z"/>
	<g>
		<g>
			<g>
				<path fill="#FFFFFF" d="M214,40.8c-12.2,0-22.1,9.9-22.1,22.1V91c0,26.4-20.1,48.1-45.8,50.7V51.3h3.2c2.9,0,5.3-2.4,5.3-5.3
					s-2.4-5.3-5.3-5.3h-16.9c-2.9,0-5.3,2.4-5.3,5.3s2.4,5.3,5.3,5.3h3.2v90.5c-25.7-2.6-45.8-24.4-45.8-50.7V62.9
					c0-12.2-9.9-22.1-22.1-22.1c-2.9,0-5.3,2.4-5.3,5.3s2.4,5.3,5.3,5.3c6.4,0,11.6,5.2,11.6,11.6V91c0,32.2,24.8,58.6,56.3,61.3
					v57.2H124c-2.9,0-5.3,2.4-5.3,5.3c0,2.9,2.4,5.3,5.3,5.3h33.8c2.9,0,5.3-2.4,5.3-5.3c0-2.9-2.4-5.3-5.3-5.3h-11.6v-57.2
					c31.5-2.7,56.3-29.1,56.3-61.3V62.9c0-6.4,5.2-11.6,11.6-11.6c2.9,0,5.3-2.4,5.3-5.3C219.3,43.1,216.9,40.8,214,40.8z"/>
			</g>
		</g>
	</g>
</g>
</svg>
