<?xml version="1.0" encoding="utf-8"?>
<!-- Generator: Adobe Illustrator 18.0.0, SVG Export Plug-In . SVG Version: 6.00 Build 0)  -->
<!DOCTYPE svg PUBLIC "-//W3C//DTD SVG 1.1//EN" "http://www.w3.org/Graphics/SVG/1.1/DTD/svg11.dtd">
<svg version="1.1" id="Layer_1" xmlns="http://www.w3.org/2000/svg" xmlns:xlink="http://www.w3.org/1999/xlink" x="0px" y="0px"
	 viewBox="0 0 160 160" enable-background="new 0 0 160 160" xml:space="preserve">
<g>
	<path fill="#00FFFF" d="M78,147.3h-1.1c-34.5,0-62.7-28.2-62.7-62.7v-1.1c0-34.5,28.2-62.7,62.7-62.7H78
		c34.5,0,62.7,28.2,62.7,62.7v1.1C140.7,119.1,112.5,147.3,78,147.3z"/>
	<path fill="#2E3192" d="M83.1,139.2H82c-34.5,0-62.7-28.2-62.7-62.7v-1.1c0-34.5,28.2-62.7,62.7-62.7h1.1
		c34.5,0,62.7,28.2,62.7,62.7v1.1C145.8,111,117.6,139.2,83.1,139.2z"/>
	<g>
		<g>
			<g>
				<path fill="#FFFFFF" d="M118.3,32.1c-6,0-10.8,4.9-10.8,10.8v13.8c0,12.9-9.8,23.5-22.4,24.8V37.3h1.6c1.4,0,2.6-1.1,2.6-2.6
					s-1.1-2.6-2.6-2.6h-8.3c-1.4,0-2.6,1.1-2.6,2.6s1.1,2.6,2.6,2.6H80v44.2c-12.5-1.3-22.4-11.9-22.4-24.8V43
					c0-6-4.9-10.8-10.8-10.8c-1.4,0-2.6,1.1-2.6,2.6s1.1,2.6,2.6,2.6c3.1,0,5.7,2.5,5.7,5.7v13.8c0,15.7,12.1,28.7,27.5,30v28h-5.7
					c-1.4,0-2.6,1.1-2.6,2.6s1.1,2.6,2.6,2.6h16.5c1.4,0,2.6-1.1,2.6-2.6s-1.1-2.6-2.6-2.6h-5.7v-28c15.4-1.3,27.5-14.2,27.5-30V43
					c0-3.1,2.6-5.7,5.7-5.7c1.4,0,2.6-1.1,2.6-2.6C120.9,33.3,119.7,32.1,118.3,32.1z"/>
			</g>
		</g>
	</g>
</g>
</svg>
