<?xml version="1.0" encoding="utf-8"?>
<!-- Generator: Adobe Illustrator 18.0.0, SVG Export Plug-In . SVG Version: 6.00 Build 0)  -->
<!DOCTYPE svg PUBLIC "-//W3C//DTD SVG 1.1//EN" "http://www.w3.org/Graphics/SVG/1.1/DTD/svg11.dtd">
<svg version="1.1" id="Layer_1" xmlns="http://www.w3.org/2000/svg" xmlns:xlink="http://www.w3.org/1999/xlink" x="0px" y="0px"
	 viewBox="0 0 278.7 273.3" enable-background="new 0 0 278.7 273.3" xml:space="preserve">
<g>
	<g>
		<path fill="#2E3192" d="M-230,154.2c-12.2-12.2-28.5-19-45.8-19c-17.3,0-33.5,6.7-45.8,19c-12.1,12.1-18.8,28.1-18.9,45.2
			l-11.8,23.5c-0.5,1.1-0.2,2.3,0.9,2.9l10.9,6.6v34.8c0,1.2,1,2.3,2.3,2.3h21.8v17c0,1.2,1,2.3,2.3,2.3s2.3-1,2.3-2.3v-19.2
			c0-1.2-1-2.3-2.3-2.3h-21.8v-33.8c0-0.8-0.4-1.5-1.1-1.9l-10.2-6.1l11.1-22.2c0.2-0.3,0.2-0.7,0.2-1c0-33.2,27-60.2,60.2-60.2
			s60.2,27,60.2,60.2c0,18.7-8.4,35.9-23.2,47.5c-0.5,0.4-0.9,1.1-0.9,1.8v37.2c0,1.2,1,2.3,2.3,2.3s2.3-1,2.3-2.3v-36.2
			c15.3-12.4,24-30.6,24-50.3C-211,182.7-217.7,166.5-230,154.2z"/>
	</g>
</g>
<g>
	<g>
		<path fill="#2E3192" d="M-211,200c0,19.7,8.7,38,24,50.3v36.2c0,1.2,1,2.3,2.3,2.3s2.3-1,2.3-2.3v-37.2c0-0.7-0.3-1.3-0.9-1.8
			c-14.7-11.5-23.2-28.8-23.2-47.5c0-33.2,27-60.2,60.2-60.2s60.2,27,60.2,60.2c0,0.4,0.1,0.7,0.2,1l11.1,22.2l-10.2,6.1
			c-0.7,0.4-1.1,1.1-1.1,1.9V265h-21.8c-1.2,0-2.3,1-2.3,2.3v19.2c0,1.2,1,2.3,2.3,2.3c1.2,0,2.3-1,2.3-2.3v-17h21.8
			c1.2,0,2.3-1,2.3-2.3v-34.8l10.9-6.6c1-0.6,1.4-1.9,0.9-2.9l-11.8-23.5c-0.1-17.1-6.9-33.1-18.9-45.2c-12.2-12.2-28.5-19-45.8-19
			s-33.5,6.7-45.8,19C-204.3,166.5-211,182.7-211,200z"/>
	</g>
</g>
<g>
	<polygon fill="none" stroke="#2E3192" stroke-width="6" stroke-miterlimit="10" points="-430,176 -330.2,176 -430,326 -330.2,326 	
		"/>
	<polygon fill="#2E3192" points="-420.3,320.3 -380.3,285 -340.3,320.3 	"/>
	<polygon fill="#2E3192" points="-369,225.4 -380.1,240.8 -391.1,225.4 	"/>
</g>
<g>
	<g>
		<g>
			<path fill="#2E3192" d="M146.5,40C126.9,40,111,55.9,111,75.5s15.9,35.5,35.5,35.5C166,111,182,95.1,182,75.5S166,40,146.5,40z
				 M146.5,99.8c-13.4,0-24.3-10.9-24.3-24.3s10.9-24.3,24.3-24.3c13.4,0,24.3,10.9,24.3,24.3C170.8,88.9,159.9,99.8,146.5,99.8z"/>
		</g>
	</g>
	<g>
		<g>
			<path fill="#2E3192" d="M146.5,10.1c-3.1,0-5.6,2.5-5.6,5.6v12c0,3.1,2.5,5.6,5.6,5.6c3.1,0,5.6-2.5,5.6-5.6v-12
				C152.1,12.6,149.6,10.1,146.5,10.1z"/>
		</g>
	</g>
	<g>
		<g>
			<path fill="#2E3192" d="M127.4,31.3l-6-10.4c-1.5-2.7-5-3.6-7.7-2.1c-2.7,1.5-3.6,5-2.1,7.7l6,10.4c1,1.8,2.9,2.8,4.9,2.8
				C126.8,39.7,129.5,34.9,127.4,31.3z"/>
		</g>
	</g>
	<g>
		<g>
			<path fill="#2E3192" d="M107.9,46.7l-10.4-6c-2.7-1.5-6.1-0.6-7.7,2.1c-1.5,2.7-0.6,6.1,2.1,7.7l10.4,6c2.9,1.7,6.6,0.4,7.9-2.6
				C111.3,51.3,110.3,48.1,107.9,46.7z"/>
		</g>
	</g>
	<g>
		<g>
			<path fill="#2E3192" d="M98.7,69.9h-12c-3.1,0-5.6,2.5-5.6,5.6s2.5,5.6,5.6,5.6h12c3.1,0,5.6-2.5,5.6-5.6S101.7,69.9,98.7,69.9z"
				/>
		</g>
	</g>
	<g>
		<g>
			<path fill="#2E3192" d="M109.9,96.6c-1.5-2.7-5-3.6-7.7-2.1l-10.4,6c-2.4,1.4-3.5,4.5-2.3,7.1c1.3,3,5.1,4.3,7.9,2.6l10.4-6
				C110.5,102.7,111.5,99.3,109.9,96.6z"/>
		</g>
	</g>
	<g>
		<g>
			<path fill="#2E3192" d="M125.4,112.1c-2.7-1.5-6.1-0.6-7.7,2.1l-6,10.4c-1.4,2.4-0.7,5.6,1.5,7.3c2.7,2,6.5,1.1,8.2-1.7l6-10.4
				C129,117,128,113.6,125.4,112.1z"/>
		</g>
	</g>
	<g>
		<g>
			<path fill="#2E3192" d="M146.5,117.7c-3.1,0-5.6,2.5-5.6,5.6v12c0,3.1,2.5,5.6,5.6,5.6c3.1,0,5.6-2.5,5.6-5.6v-12
				C152.1,120.2,149.6,117.7,146.5,117.7z"/>
		</g>
	</g>
	<g>
		<g>
			<path fill="#2E3192" d="M181.2,124.5l-6-10.4c-1.5-2.7-5-3.6-7.7-2.1c-2.7,1.5-3.6,5-2.1,7.7l6,10.4c1.6,2.9,5.5,3.7,8.2,1.7
				C182,130.1,182.6,126.9,181.2,124.5z"/>
		</g>
	</g>
	<g>
		<g>
			<path fill="#2E3192" d="M201,100.5l-10.4-6c-2.7-1.5-6.1-0.6-7.7,2.1c-1.5,2.7-0.6,6.1,2.1,7.7l10.4,6c2.9,1.7,6.6,0.4,7.9-2.6
				C204.5,105.1,203.5,101.9,201,100.5z"/>
		</g>
	</g>
	<g>
		<g>
			<path fill="#2E3192" d="M206.2,69.9h-12c-3.1,0-5.6,2.5-5.6,5.6s2.5,5.6,5.6,5.6h12c3.1,0,5.6-2.5,5.6-5.6
				C211.8,72.4,209.3,69.9,206.2,69.9z"/>
		</g>
	</g>
	<g>
		<g>
			<path fill="#2E3192" d="M203.1,42.8c-1.5-2.7-5-3.6-7.7-2.1l-10.4,6c-2.4,1.4-3.5,4.5-2.3,7.1c1.3,3,5.1,4.3,7.9,2.6l10.4-6
				C203.7,48.9,204.6,45.5,203.1,42.8z"/>
		</g>
	</g>
	<g>
		<g>
			<path fill="#2E3192" d="M179.2,18.9c-2.7-1.5-6.1-0.6-7.7,2.1l-6,10.4c-2.1,3.7,0.6,8.4,4.8,8.4c1.9,0,3.8-1,4.9-2.8l6-10.4
				C182.8,23.9,181.8,20.4,179.2,18.9z"/>
		</g>
	</g>
	<g>
		<g>
			<path fill="#2E3192" d="M255.7,215.6l-35.1-35.1c-19.5-19.5-50.4-20.7-71.4-3.8L123.4,151c-6.8-6.8-18.1-6.8-24.8,0
				c-1.6,1.6-2.8,3.4-3.7,5.3l-9.6-9.6c-6.8-6.8-18-6.8-24.8,0c-1.6,1.6-2.8,3.4-3.7,5.3l-5.3-5.3c-6.8-6.8-18-6.8-24.8,0
				c-6.8,6.8-6.8,18.1,0,24.8l5.1,5.1c-1.7,0.7-3.3,1.7-4.7,3.1c-7.3,6.7-7.6,18.4-0.6,25.4l8.7,8.7c2.2,2.2,5.8,2.2,7.9,0
				c2.2-2.2,2.2-5.8,0-7.9l-8.7-8.7c-2.6-2.6-2.4-7.2,0.5-9.5c2.6-2,6.4-1.5,8.7,0.7l25.1,25.1l0.6,0.6c0.7,9,8.2,16.2,17.4,16.2
				l45.2,0.3c0,0,0,0,0,0c3.1,0,5.6-2.5,5.6-5.6c0-3.1-2.5-5.6-5.6-5.6l-45.2-0.3c-3.5,0-6.3-2.9-6.3-6.4c0-3.5,2.9-6.3,6.4-6.3
				c0,0,0,0,0,0l43.9,0.3c1.8,0.5,3.9,0,5.3-1.5l16.9-16.9c16.5-16.5,43.2-16.5,59.7,0l35.1,35.1c2.3,2.3,6.1,2.1,8.2-0.3
				C257.8,221,257.7,217.7,255.7,215.6z M73,202.1l-38.4-38.4c-2.4-2.4-2.4-6.5,0-9c2.5-2.5,6.5-2.5,9,0l40.8,40.8
				C79.8,196.2,75.8,198.6,73,202.1z M100.2,195.4c-0.1-0.1-0.2-0.2-0.3-0.3l-31.4-31.4c-2.4-2.4-2.4-6.5,0-9c2.5-2.5,6.5-2.5,9,0
				l21.1,21.1c0,0,0,0,0,0l19.8,19.8L100.2,195.4z M132.1,193.5l-25.6-25.6c-1.2-1.2-1.9-2.8-1.9-4.5c0-5.5,6.9-8.4,10.8-4.5
				l25.6,25.6L132.1,193.5z"/>
		</g>
	</g>
	<g>
		<g>
			<path fill="#2E3192" d="M217.6,253.7l-18.1-18.1c-1.3-1.3-3.2-1.9-5.1-1.5l-41.7,8.3H79.5l-15.3-15.3c-2.2-2.2-5.7-2.2-7.9,0
				c-2.2,2.2-2.2,5.7,0,7.9l16.9,16.9c1.1,1.1,2.5,1.6,4,1.6h76.1c0.4,0,0.7,0,1.1-0.1l39.3-7.9l16,16c2.3,2.3,6.1,2.1,8.2-0.3
				C219.8,259.1,219.7,255.7,217.6,253.7z"/>
		</g>
	</g>
</g>
</svg>
