<?xml version="1.0" encoding="utf-8"?>
<!-- Generator: Adobe Illustrator 18.0.0, SVG Export Plug-In . SVG Version: 6.00 Build 0)  -->
<!DOCTYPE svg PUBLIC "-//W3C//DTD SVG 1.1//EN" "http://www.w3.org/Graphics/SVG/1.1/DTD/svg11.dtd">
<svg version="1.1" id="Layer_1" xmlns="http://www.w3.org/2000/svg" xmlns:xlink="http://www.w3.org/1999/xlink" x="0px" y="0px"
	 viewBox="0 0 311 61.8" enable-background="new 0 0 311 61.8" xml:space="preserve">
<g>
	<path fill="#2E3192" d="M75.5,20.2V27h-3.8V0.9h6.5c1.8,0,3.4,0.2,4.7,0.5s2.4,0.7,3.3,1.2s1.6,1.1,2.1,1.8s0.9,1.4,1.2,2.1
		s0.5,1.4,0.6,2.2s0.1,1.4,0.1,2c0,0.6,0,1.3-0.1,2s-0.3,1.4-0.6,2.1s-0.7,1.4-1.3,2S87,18,86.1,18.5s-2,0.9-3.3,1.2
		s-2.8,0.4-4.6,0.4H75.5z M75.5,2.6v15.8h2.2c1.3,0,2.5-0.1,3.5-0.4s2-0.8,2.7-1.4s1.3-1.5,1.7-2.5s0.6-2.2,0.6-3.6
		c0-1.1-0.1-2-0.3-2.9S85.4,6.1,85,5.5s-0.8-1.1-1.3-1.4S82.6,3.4,82,3.2s-1.3-0.4-2-0.5s-1.5-0.1-2.2-0.1H75.5z"/>
	<path fill="#2E3192" d="M97.8,10.1c0.5,0,0.9,0,1.3,0.1s0.7,0.1,1,0.2s0.6,0.2,1,0.3s0.7,0.2,1.1,0.4l0,1.5
		c-0.6-0.2-1.1-0.4-1.7-0.5s-1.3-0.2-2.2-0.2c-0.2,0-0.4,0-0.6,0.1S97,12,96.8,12.1s-0.4,0.3-0.6,0.4S96,13,96,13.2
		c0,0.3,0.1,0.7,0.4,1.1s0.7,1,1.3,1.6l1.9,2.1c0.4,0.5,0.8,0.9,1.2,1.3s0.7,0.8,1,1.3s0.6,0.8,0.7,1.2s0.3,0.8,0.3,1.2
		c0,0.8-0.2,1.4-0.5,2s-0.8,1-1.4,1.3s-1.2,0.6-1.9,0.7s-1.4,0.2-2.1,0.2c-1,0-1.9-0.1-2.6-0.3s-1.5-0.5-2.2-0.9l0.1-1.6
		c0.5,0.3,1.1,0.5,1.8,0.8s1.3,0.4,2,0.4c1.1,0,1.9-0.2,2.5-0.6s0.8-0.9,0.8-1.7c0-0.5-0.2-1.1-0.6-1.6s-1-1.2-1.6-1.9l-1.9-2.1
		c-0.5-0.6-0.9-1.1-1.3-1.6s-0.6-0.8-0.8-1.1s-0.4-0.6-0.5-0.9s-0.1-0.6-0.1-1c0-0.6,0.1-1.1,0.4-1.5s0.7-0.7,1.1-1s1-0.4,1.7-0.5
		S97.1,10.1,97.8,10.1z"/>
	<path fill="#2E3192" d="M109.8,7.7h-3.6V5.6h3.6V7.7z M109.8,27h-3.6V10.5h3.6V27z"/>
	<path fill="#2E3192" d="M126.5,13.2c-0.6-0.5-1.2-0.9-1.8-1.1s-1.3-0.4-2.1-0.4c-0.9,0-1.7,0.2-2.3,0.5s-1.2,0.8-1.7,1.4
		s-0.8,1.3-1,2s-0.4,1.6-0.4,2.4c0,0.4,0,0.9,0.1,1.4s0.2,1.1,0.3,1.6s0.4,1.1,0.7,1.6s0.7,1,1.2,1.4s1.1,0.8,1.9,1s1.7,0.4,2.7,0.4
		h2.6V27H124c-1.4,0-2.6-0.1-3.7-0.3s-2-0.5-2.8-0.9s-1.4-0.9-2-1.4s-0.9-1.1-1.3-1.8s-0.5-1.4-0.7-2.1s-0.2-1.5-0.2-2.3
		c0-1.1,0.2-2.1,0.6-3s0.9-1.8,1.7-2.5s1.7-1.3,2.8-1.7s2.4-0.7,3.9-0.7c0.4,0,0.8,0,1.2,0.1s0.8,0.2,1.2,0.4s0.8,0.4,1.2,0.6
		s0.8,0.5,1.1,0.8L126.5,13.2z"/>
	<path fill="#2E3192" d="M137.2,10.1c1.2,0,2.3,0.2,3.4,0.7s2,1.1,2.8,1.8s1.4,1.7,1.8,2.7s0.7,2.2,0.7,3.3c0,1.2-0.2,2.3-0.7,3.4
		s-1.1,2-1.8,2.7s-1.7,1.4-2.8,1.8s-2.2,0.7-3.4,0.7c-1.2,0-2.3-0.2-3.3-0.7s-1.9-1.1-2.7-1.8s-1.4-1.7-1.8-2.7s-0.7-2.2-0.7-3.4
		c0-1.2,0.2-2.3,0.7-3.3s1.1-2,1.8-2.7s1.7-1.4,2.7-1.8S136,10.1,137.2,10.1z M137.1,11.7c-0.9,0-1.7,0.2-2.3,0.5s-1.1,0.8-1.5,1.5
		s-0.7,1.4-0.8,2.3s-0.3,1.8-0.3,2.8c0,1,0.1,1.9,0.3,2.8s0.5,1.6,0.8,2.2s0.9,1.1,1.5,1.5s1.4,0.5,2.3,0.5s1.7-0.2,2.3-0.5
		s1.2-0.8,1.6-1.5s0.7-1.4,0.9-2.2s0.3-1.8,0.3-2.8c0-1-0.1-2-0.3-2.8s-0.5-1.6-0.9-2.3s-0.9-1.1-1.6-1.5S138,11.7,137.1,11.7z"/>
	<path fill="#2E3192" d="M149.4,0.9h3.6V27h-3.6V0.9z"/>
	<path fill="#2E3192" d="M165.1,10.1c1.2,0,2.3,0.2,3.4,0.7s2,1.1,2.8,1.8s1.4,1.7,1.8,2.7s0.7,2.2,0.7,3.3c0,1.2-0.2,2.3-0.7,3.4
		s-1.1,2-1.8,2.7s-1.7,1.4-2.8,1.8s-2.2,0.7-3.4,0.7c-1.2,0-2.3-0.2-3.3-0.7s-1.9-1.1-2.7-1.8s-1.4-1.7-1.8-2.7s-0.7-2.2-0.7-3.4
		c0-1.2,0.2-2.3,0.7-3.3s1.1-2,1.8-2.7s1.7-1.4,2.7-1.8S163.9,10.1,165.1,10.1z M165,11.7c-0.9,0-1.7,0.2-2.3,0.5s-1.1,0.8-1.5,1.5
		s-0.7,1.4-0.8,2.3s-0.3,1.8-0.3,2.8c0,1,0.1,1.9,0.3,2.8s0.5,1.6,0.8,2.2s0.9,1.1,1.5,1.5s1.4,0.5,2.3,0.5s1.7-0.2,2.3-0.5
		s1.2-0.8,1.6-1.5s0.7-1.4,0.9-2.2s0.3-1.8,0.3-2.8c0-1-0.1-2-0.3-2.8s-0.5-1.6-0.9-2.3s-0.9-1.1-1.6-1.5S165.9,11.7,165,11.7z"/>
	<path fill="#2E3192" d="M200.9,7.7h-3.6V5.6h3.6V7.7z M200.9,27h-3.6V10.5h3.6V27z"/>
	<path fill="#2E3192" d="M211.3,11.6c-0.6,0-1.1,0-1.5,0.1c-0.4,0-0.8,0.1-1.1,0.1s-0.7,0.1-0.9,0.2c-0.3,0.1-0.6,0.2-0.9,0.2
		l-0.4-1.1c1-0.4,2-0.6,3.1-0.8s2.1-0.2,3-0.2c1.2,0,2.2,0.1,3,0.2s1.4,0.3,1.9,0.6s0.8,0.7,0.9,1.2s0.3,1.1,0.3,1.9v13h-5.8
		c-1.6,0-2.9-0.2-4-0.5s-2-0.8-2.7-1.3s-1.2-1.2-1.5-1.9s-0.5-1.5-0.5-2.3c0-1,0.2-1.9,0.5-2.6s0.8-1.4,1.3-1.9s1.3-0.9,2.1-1.2
		s1.8-0.4,2.9-0.4c0.6,0,1.3,0.1,2,0.3s1.5,0.5,2.1,0.9V14c0-0.3,0-0.5-0.1-0.8s-0.2-0.5-0.5-0.7c-0.2-0.2-0.6-0.4-1.1-0.5
		C212.9,11.7,212.2,11.6,211.3,11.6z M215.1,25.6v-8.1c-0.6-0.3-1.1-0.6-1.8-0.8s-1.3-0.2-2-0.2c-0.6,0-1.1,0.1-1.6,0.3
		s-0.8,0.5-1.1,0.9s-0.5,0.8-0.7,1.4s-0.2,1.1-0.2,1.8c0,0.2,0,0.4,0,0.7s0.1,0.6,0.2,1s0.3,0.7,0.5,1.1s0.5,0.7,0.9,1
		s0.8,0.5,1.4,0.7s1.3,0.3,2.1,0.3H215.1z"/>
	<path fill="#2E3192" d="M90.9,46.5c-0.5,0-0.9,0.1-1.1,0.4s-0.3,0.5-0.3,0.7s0.1,0.6,0.2,1.1c0.1,0.5,0.2,1.2,0.2,2.1
		c0,1.9-0.4,3.6-1.3,5.2c0.9,0.7,1.5,1.3,2.1,1.7s1.2,0.8,2,1.2c0.8,0.4,1.6,0.7,2.3,0.7V60c0,0-0.2,0-0.6,0c-0.4,0-0.6,0-0.8,0
		c-0.2,0-0.4,0-0.9,0c-0.4,0-0.8-0.1-1-0.1c-0.3-0.1-0.6-0.1-1-0.2c-0.4-0.1-0.8-0.2-1.2-0.4c-0.9-0.4-1.6-0.8-2.3-1.3
		c-1.7,1.7-3.9,2.5-6.7,2.5c-3.5,0-6.2-0.7-8.1-2.2c-1.9-1.5-2.9-3.5-2.9-6.2c0-3,1.5-5.2,4.4-6.7c-0.9-1.5-1.4-3.1-1.4-4.8
		c0-1.8,0.6-3.2,1.9-4.4c1.3-1.2,3.1-1.8,5.3-1.8c1.2,0,2.4,0.2,3.5,0.7c1.1,0.5,2,1.1,2.6,1.9l-0.6,4.1h-0.4c0-1.7-0.5-3.1-1.4-4.1
		c-0.9-1-2.1-1.5-3.6-1.5s-2.6,0.5-3.5,1.4c-0.9,1-1.4,2.2-1.4,3.6s0.4,2.8,1.3,4.1c0.9,1.3,2.6,3.1,5.2,5.4c2.6,2.3,4.5,4,5.7,5
		c0.5-1.1,0.8-2.2,0.8-3.4c0-1.2-0.3-2.3-0.8-3.3c-0.5-1-1.3-1.6-2.3-1.6h-0.5v-0.4h7.2v0.4H90.9z M85.9,56.9
		c-6.1-5.1-10-8.6-11.5-10.7c-1.5,1.4-2.3,3.3-2.3,5.6c0,2.3,0.7,4.1,2.2,5.5c1.5,1.3,3.5,2,6.2,2C82.7,59.3,84.5,58.5,85.9,56.9z"
		/>
	<path fill="#2E3192" d="M100.1,33.9h4l8.6,21.3l9-21.3h2l-10,23.8l1,2.4h-4.1L100.1,33.9z"/>
	<path fill="#2E3192" d="M128.7,40.7h-3.6v-2.1h3.6V40.7z M128.7,60h-3.6V43.5h3.6V60z"/>
	<path fill="#2E3192" d="M142.9,60c-1.4,0-2.6-0.1-3.7-0.3s-2-0.5-2.8-0.9s-1.4-0.9-2-1.4s-0.9-1.2-1.3-1.8s-0.5-1.4-0.7-2.1
		s-0.2-1.5-0.2-2.3c0-1.1,0.2-2.2,0.5-3.2s0.9-1.8,1.6-2.5s1.6-1.3,2.7-1.7s2.4-0.6,3.9-0.6c0.6,0,1.3,0.1,2,0.3s1.5,0.5,2.1,0.9
		V33.9h3.6V60H142.9z M136,51.1c0,0.4,0,0.9,0.1,1.4s0.2,1.1,0.3,1.6s0.4,1.1,0.7,1.6s0.7,1,1.2,1.4s1.1,0.8,1.9,1s1.7,0.4,2.7,0.4
		h2.3v-13c-0.6-0.3-1.1-0.6-1.8-0.8s-1.3-0.3-2-0.3c-0.9,0-1.6,0.2-2.3,0.5s-1.2,0.8-1.7,1.4s-0.8,1.3-1.1,2.1S136,50.2,136,51.1z"
		/>
	<path fill="#2E3192" d="M159.2,44.6c-0.6,0-1.1,0-1.5,0.1c-0.4,0-0.8,0.1-1.1,0.1s-0.7,0.1-0.9,0.2c-0.3,0.1-0.6,0.2-0.9,0.2
		l-0.4-1.1c1-0.4,2-0.6,3.1-0.8s2.1-0.2,3-0.2c1.2,0,2.2,0.1,3,0.2s1.4,0.3,1.9,0.6s0.8,0.7,0.9,1.2s0.3,1.1,0.3,1.9v13h-5.8
		c-1.6,0-2.9-0.2-4-0.5s-2-0.8-2.7-1.3s-1.2-1.2-1.5-1.9S152,54.8,152,54c0-1,0.2-1.9,0.5-2.6s0.8-1.4,1.3-1.9s1.3-0.9,2.1-1.2
		s1.8-0.4,2.9-0.4c0.6,0,1.3,0.1,2,0.3s1.5,0.5,2.1,0.9V47c0-0.3,0-0.5-0.1-0.8s-0.2-0.5-0.5-0.7c-0.2-0.2-0.6-0.4-1.1-0.5
		C160.8,44.7,160.1,44.6,159.2,44.6z M163,58.6v-8.1c-0.6-0.3-1.1-0.6-1.8-0.8s-1.3-0.2-2-0.2c-0.6,0-1.1,0.1-1.6,0.3
		s-0.8,0.5-1.1,0.9s-0.5,0.8-0.7,1.4s-0.2,1.1-0.2,1.8c0,0.2,0,0.4,0,0.7s0.1,0.6,0.2,1s0.3,0.7,0.5,1.1s0.5,0.7,0.9,1
		s0.8,0.5,1.4,0.7s1.3,0.3,2.1,0.3H163z"/>
	<path fill="#2E3192" d="M193.5,51.9c-0.3-0.7-0.7-1.3-1.1-2s-1-1.3-1.6-2s-1.3-1.4-2-2.1l-3.1-3.3c-0.9-1-1.6-1.8-2-2.5
		s-0.6-1.3-0.6-1.8c0-0.5,0.1-1,0.4-1.4s0.5-0.7,0.9-0.9s6.3-2.8,6.8-3.1c0.5-0.3,0.9-0.7,1.2-1.1s0.4-0.9,0.4-1.3V10.3h-3v1
		c-1-0.4-1.7-0.7-2.5-0.9s-1.6-0.3-2.2-0.3c-1.5,0-2.9,0.2-3.9,0.6s-2,1-2.7,1.7s-1.3,1.6-1.6,2.5s-0.5,2-0.5,3.2
		c0,0.8,0.1,1.5,0.2,2.3s0.3,1.4,0.7,2.1s0.7,1.3,1.3,1.8s1.2,1,2,1.4s1.7,0.4,2.8,0.6s2.3,0,3.7,0h3v3.2c0,0.9-0.7,1.6-1.3,2.1
		s-6.6,2.5-7,2.8c-0.6,0.4-1.2,0.9-1.6,1.5s-0.6,1.4-0.6,2.4c0,0.5,0.1,1,0.2,1.4s0.4,0.9,0.7,1.5s0.7,1.2,1.3,1.8s1.2,1.5,2,2.5
		l3.1,3.4c0.5,0.5,0.9,1,1.4,1.5s0.8,0.9,1.1,1.4s0.6,0.9,0.7,1.3s0.3,0.8,0.3,1.2c0,1.3-0.4,2.4-1.3,3.1s-2.2,1.1-3.9,1.1
		c-0.5,0-1-0.1-1.5-0.2s-1-0.2-1.5-0.4s-1-0.4-1.5-0.6s-0.9-0.4-1.4-0.6l-0.2,1.9c0.6,0.3,1.1,0.6,1.7,0.9s1.2,0.5,1.8,0.6
		s1.3,0.3,2,0.4s1.4,0.1,2.2,0.1c0.9,0,1.8-0.1,2.7-0.4s1.7-0.6,2.5-1.2s1.3-1.2,1.8-2.1s0.7-1.9,0.7-3.1
		C193.9,53.2,193.8,52.6,193.5,51.9z M186.8,25.3c-1,0-1.9,0-2.7-0.3s-1.4-0.5-1.9-1s-0.9-0.9-1.2-1.4s-0.5-1.1-0.7-1.6
		s-0.3-1.1-0.3-1.6s-0.1-1-0.1-1.4c0-0.9,0.1-1.7,0.4-2.5s0.6-1.5,1.1-2.1s1-1.1,1.7-1.4s1.4-0.5,2.3-0.5c0.7,0,1.8,0.1,2.4,0.3
		s1.1,0.4,2.1,0.8v12.7H186.8z"/>
	<path fill="#2E3192" d="M203.3,44.6c-0.6,0-1.1,0-1.5,0.1c-0.4,0-0.8,0.1-1.1,0.1s-0.7,0.1-0.9,0.2c-0.3,0.1-0.6,0.2-0.9,0.2
		l-0.4-1.1c1-0.4,2-0.6,3.1-0.8s2.1-0.2,3-0.2c1.2,0,2.2,0.1,3,0.2s1.4,0.3,1.9,0.6s0.8,0.7,0.9,1.2s0.3,1.1,0.3,1.9v13h-5.8
		c-1.6,0-2.9-0.2-4-0.5s-2-0.8-2.7-1.3s-1.2-1.2-1.5-1.9s-0.5-1.5-0.5-2.3c0-1,0.2-1.9,0.5-2.6s0.8-1.4,1.3-1.9s1.3-0.9,2.1-1.2
		s1.8-0.4,2.9-0.4c0.6,0,1.3,0.1,2,0.3s1.5,0.5,2.1,0.9V47c0-0.3,0-0.5-0.1-0.8s-0.2-0.5-0.5-0.7c-0.2-0.2-0.6-0.4-1.1-0.5
		C204.9,44.7,204.2,44.6,203.3,44.6z M207.1,58.6v-8.1c-0.6-0.3-1.1-0.6-1.8-0.8s-1.3-0.2-2-0.2c-0.6,0-1.1,0.1-1.6,0.3
		s-0.8,0.5-1.1,0.9s-0.5,0.8-0.7,1.4s-0.2,1.1-0.2,1.8c0,0.2,0,0.4,0,0.7s0.1,0.6,0.2,1s0.3,0.7,0.5,1.1s0.5,0.7,0.9,1
		s0.8,0.5,1.4,0.7s1.3,0.3,2.1,0.3H207.1z"/>
	<path fill="#2E3192" d="M225.3,58.7c-0.8,0.3-1.5,0.6-2.1,0.8s-1.2,0.4-1.8,0.5s-1.1,0.2-1.5,0.3s-0.9,0.1-1.4,0.1
		c-1.1,0-1.9-0.3-2.5-0.9s-0.9-1.5-0.9-2.8V43.5h3.6v12.7c0,0.3,0,0.5,0.1,0.8s0.1,0.5,0.3,0.7s0.3,0.4,0.6,0.5s0.5,0.2,0.9,0.2
		c0.6,0,1.3-0.1,2.1-0.2s1.7-0.4,2.7-0.9V43.5h3.6V60h-3.6V58.7z"/>
	<path fill="#2E3192" d="M243.1,60c-1.4,0-2.6-0.1-3.7-0.3s-2-0.5-2.8-0.9s-1.4-0.9-2-1.4s-0.9-1.2-1.3-1.8s-0.5-1.4-0.7-2.1
		s-0.2-1.5-0.2-2.3c0-1.1,0.2-2.2,0.5-3.2s0.9-1.8,1.6-2.5s1.6-1.3,2.7-1.7s2.4-0.6,3.9-0.6c0.6,0,1.3,0.1,2,0.3s1.5,0.5,2.1,0.9
		V33.9h3.6V60H243.1z M236.1,51.1c0,0.4,0,0.9,0.1,1.4s0.2,1.1,0.3,1.6s0.4,1.1,0.7,1.6s0.7,1,1.2,1.4s1.1,0.8,1.9,1
		s1.7,0.4,2.7,0.4h2.3v-13c-0.6-0.3-1.1-0.6-1.8-0.8s-1.3-0.3-2-0.3c-0.9,0-1.6,0.2-2.3,0.5s-1.2,0.8-1.7,1.4s-0.8,1.3-1.1,2.1
		S236.1,50.2,236.1,51.1z"/>
	<path fill="#2E3192" d="M259.4,44.6c-0.6,0-1.1,0-1.5,0.1c-0.4,0-0.8,0.1-1.1,0.1c-0.3,0.1-0.7,0.1-0.9,0.2
		c-0.3,0.1-0.6,0.2-0.9,0.2l-0.4-1.1c1-0.4,2-0.6,3.1-0.8s2.1-0.2,3-0.2c1.2,0,2.2,0.1,3,0.2s1.4,0.3,1.9,0.6s0.8,0.7,0.9,1.2
		s0.3,1.1,0.3,1.9v13h-5.8c-1.6,0-2.9-0.2-4-0.5c-1.1-0.3-2-0.8-2.7-1.3s-1.2-1.2-1.5-1.9s-0.5-1.5-0.5-2.3c0-1,0.2-1.9,0.5-2.6
		s0.8-1.4,1.3-1.9s1.3-0.9,2.1-1.2c0.8-0.3,1.8-0.4,2.9-0.4c0.6,0,1.3,0.1,2,0.3s1.5,0.5,2.1,0.9V47c0-0.3,0-0.5-0.1-0.8
		s-0.2-0.5-0.5-0.7c-0.2-0.2-0.6-0.4-1.1-0.5C260.9,44.7,260.2,44.6,259.4,44.6z M263.1,58.6v-8.1c-0.6-0.3-1.1-0.6-1.8-0.8
		s-1.3-0.2-2-0.2c-0.6,0-1.1,0.1-1.6,0.3s-0.8,0.5-1.1,0.9s-0.5,0.8-0.7,1.4c-0.2,0.5-0.2,1.1-0.2,1.8c0,0.2,0,0.4,0,0.7
		s0.1,0.6,0.2,1c0.1,0.4,0.3,0.7,0.5,1.1s0.5,0.7,0.9,1s0.8,0.5,1.4,0.7s1.3,0.3,2.1,0.3H263.1z M261,35.8h4.1l-4.6,5.2h-1.7
		L261,35.8z"/>
	<path fill="#2E3192" d="M278.5,56.2l4.9-12.7h1.7l-5.6,14.8l0.8,1.8h-3.7L269,43.5h3.7L278.5,56.2z"/>
	<path fill="#2E3192" d="M294.3,43.1c1.2,0,2.2,0.2,3,0.7s1.5,1,2,1.8s0.9,1.6,1.1,2.6s0.3,2,0.3,3.1v0.8H290c0,0.7,0.1,1.4,0.3,2.1
		s0.6,1.5,1,2.1s1.1,1.2,1.8,1.6s1.7,0.6,2.8,0.6h3.7V60h-3.7c-1.6,0-3.1-0.2-4.2-0.6s-2.2-0.9-2.9-1.6s-1.3-1.6-1.7-2.6
		s-0.5-2.2-0.5-3.5c0-1.1,0.2-2.2,0.5-3.2s0.8-1.9,1.5-2.7s1.5-1.4,2.4-1.9S293,43.1,294.3,43.1z M294.1,44.7
		c-0.7,0-1.3,0.2-1.9,0.5s-0.9,0.8-1.3,1.3s-0.6,1.2-0.7,1.9s-0.2,1.5-0.3,2.2h7.4v-0.8c0-0.7-0.1-1.3-0.2-2s-0.3-1.2-0.5-1.7
		s-0.6-0.9-1-1.2S294.8,44.7,294.1,44.7z"/>
	<path fill="#2E3192" d="M304.3,33.9h3.6V60h-3.6V33.9z"/>
</g>
<g>
	<path opacity="0.8" fill="#4BA0F2" d="M53.8,59.6l0-24.6c0,0,8.4-10.3,3.1-21.9c-2.5-5.4-7.3-9.5-13-11.1
		C25-3.5,5.4,10.6,16.4,28.8L8.8,42l5.4,0.1l1.5,12.4l13.5,0l0.1,5.2H53.8z"/>
	<path opacity="0.8" fill="#79EAF9" d="M46.8,59.6l0-24.6c0,0,8.4-10.3,3.1-21.9c-2.5-5.4-7.3-9.5-13-11.1
		C17.9-3.5-1.7,10.6,9.3,28.8L1.7,42l5.4,0.1l1.5,12.4l13.5,0l0.1,5.2H46.8z"/>
	<path fill="#2E3192" d="M42.4,53.2l0-19.2c0,0,6.6-8,2.5-17.2c-1.9-4.3-5.7-7.4-10.2-8.7c-14.8-4.3-30.1,6.7-21.5,21L7.2,39.4
		l4.3,0l1.2,9.7l10.6,0l0.1,4.1H42.4z"/>
	<path fill="#E6E6E6" d="M16.5,27.5c-0.2,0.2-0.3,0.5-0.3,0.9V29c0,0.4,0.1,0.7,0.3,0.9c0.2,0.2,0.5,0.3,0.8,0.3h0.2
		c0.4,0,0.7-0.1,0.8-0.3c0.2-0.2,0.3-0.5,0.3-0.9v-0.7c0-0.4-0.1-0.7-0.3-0.9c-0.2-0.2-0.5-0.3-0.8-0.3h-0.2
		C17,27.1,16.7,27.2,16.5,27.5z"/>
</g>
</svg>
